<?xml version="1.0" standalone="no"?>
<!DOCTYPE svg PUBLIC "-//W3C//DTD SVG 1.1//EN" "http://www.w3.org/Graphics/SVG/1.1/DTD/svg11.dtd" >
<svg xmlns="http://www.w3.org/2000/svg" xmlns:xlink="http://www.w3.org/1999/xlink" version="1.1">
<metadata>
Created by FontForge 20170731 at Mon Mar 20 20:41:01 2017
 By Aleksey,,,
</metadata>
<defs>
<font id="Engcomica" horiz-adv-x="1300" >
  <font-face 
    font-family="Engcomica"
    font-weight="400"
    font-stretch="normal"
    units-per-em="2048"
    panose-1="2 11 6 3 5 3 2 2 2 4"
    ascent="1638"
    descent="-410"
    x-height="1183"
    cap-height="1359"
    bbox="-116 -582 1927 2032"
    underline-thickness="0"
    underline-position="0"
    unicode-range="U+0020-2032"
  />
<missing-glyph horiz-adv-x="2972" 
d="M1082 363q-19 94 -27.5 140t-16 118.5t-7.5 141.5q0 106 16 239l-235 -57q-15 -71 -42 -162.5t-50 -146.5q-1 18 -1 40q0 130 24 320l-241 -59q-20 -91 -49.5 -173t-72.5 -166t-77 -142t-92 -153q28 0 70.5 4.5t82 11.5t61.5 14q17 26 34 63t34.5 81t31.5 81.5t31 86
t26 72.5q-12 -132 -12 -243q0 -23 1 -44q3 -129 19 -132q107 14 180 53q14 3 18 6q7 29 29 132t39.5 173t35.5 121q-18 -179 -22 -328q-1 -40 -1 -70q0 -79 8 -82q134 15 205 60zM250 184q-214 188 -214 477q0 258 184.5 442.5t445.5 184.5q259 0 443.5 -184.5t184.5 -442.5
q0 -262 -184.5 -447t-443.5 -185q-101 0 -206 33l-355 -158z" />
    <glyph glyph-name=".notdef" horiz-adv-x="2972" 
d="M1082 363q-19 94 -27.5 140t-16 118.5t-7.5 141.5q0 106 16 239l-235 -57q-15 -71 -42 -162.5t-50 -146.5q-1 18 -1 40q0 130 24 320l-241 -59q-20 -91 -49.5 -173t-72.5 -166t-77 -142t-92 -153q28 0 70.5 4.5t82 11.5t61.5 14q17 26 34 63t34.5 81t31.5 81.5t31 86
t26 72.5q-12 -132 -12 -243q0 -23 1 -44q3 -129 19 -132q107 14 180 53q14 3 18 6q7 29 29 132t39.5 173t35.5 121q-18 -179 -22 -328q-1 -40 -1 -70q0 -79 8 -82q134 15 205 60zM250 184q-214 188 -214 477q0 258 184.5 442.5t445.5 184.5q259 0 443.5 -184.5t184.5 -442.5
q0 -262 -184.5 -447t-443.5 -185q-101 0 -206 33l-355 -158z" />
    <glyph glyph-name=".null" horiz-adv-x="0" 
 />
    <glyph glyph-name="nonmarkingreturn" horiz-adv-x="682" 
 />
    <glyph glyph-name="space" unicode=" " horiz-adv-x="580" 
 />
    <glyph glyph-name="exclam" unicode="!" horiz-adv-x="810" 
d="M184 333q27 148 67 328.5t91.5 370t94.5 294.5q137 39 275.5 46t209.5 13q-58 -181 -119.5 -471t-95.5 -519zM454 244q97 0 163.5 -47t66.5 -129q0 -23 -6 -48q-22 -92 -120.5 -158.5t-211.5 -66.5q-64 0 -115 20.5t-82.5 62t-31.5 98.5q0 21 5 44q19 99 115 161.5
t217 62.5z" />
    <glyph glyph-name="quotedbl" unicode="&#x22;" 
d="M1082 363q-19 94 -27.5 140t-16 118.5t-7.5 141.5q0 106 16 239l-235 -57q-15 -71 -42 -162.5t-50 -146.5q-1 18 -1 40q0 130 24 320l-241 -59q-20 -91 -49.5 -173t-72.5 -166t-77 -142t-92 -153q28 0 70.5 4.5t82 11.5t61.5 14q17 26 34 63t34.5 81t31.5 81.5t31 86
t26 72.5q-12 -132 -12 -243q0 -23 1 -44q3 -129 19 -132q107 14 180 53q14 3 18 6q7 29 29 132t39.5 173t35.5 121q-18 -179 -22 -328q-1 -40 -1 -70q0 -79 8 -82q134 15 205 60zM250 184q-214 188 -214 477q0 258 184.5 442.5t445.5 184.5q259 0 443.5 -184.5t184.5 -442.5
q0 -262 -184.5 -447t-443.5 -185q-101 0 -206 33l-355 -158z" />
    <glyph glyph-name="numbersign" unicode="#" horiz-adv-x="1347" 
d="M553 1154q119 48 120.5 55.5t67.5 10.5q-37 -134 -72 -315q114 5 336 23q48 167 90 270q125 51 126.5 58t66.5 13q-36 -139 -71 -330q41 0 115.5 5.5t89.5 6.5l-69 -179q-113 -5 -173 -11q-5 -28 -13.5 -80.5t-16 -94.5t-15.5 -78q108 0 239 12l-72 -182q-49 0 -193 -8
q-20 -143 -39 -288l-284 -78q38 244 62 345q-151 -17 -289 -39q-3 -22 -8 -59t-8.5 -62.5t-7 -58.5t-5.5 -61l-277 -74q14 106 48 272q-125 -21 -265 -51l55 204q131 34 255 57q29 137 52 221q-119 -23 -240 -51l53 208q136 36 246 56q51 170 96 283zM951 743
q-139 -14 -321 -45q-6 -42 -19 -115.5t-19 -109.5q139 13 297 24q9 48 32 132.5t30 113.5z" />
    <glyph glyph-name="dollar" unicode="$" 
d="M1082 363q-19 94 -27.5 140t-16 118.5t-7.5 141.5q0 106 16 239l-235 -57q-15 -71 -42 -162.5t-50 -146.5q-1 18 -1 40q0 130 24 320l-241 -59q-20 -91 -49.5 -173t-72.5 -166t-77 -142t-92 -153q28 0 70.5 4.5t82 11.5t61.5 14q17 26 34 63t34.5 81t31.5 81.5t31 86
t26 72.5q-12 -132 -12 -243q0 -23 1 -44q3 -129 19 -132q107 14 180 53q14 3 18 6q7 29 29 132t39.5 173t35.5 121q-18 -179 -22 -328q-1 -40 -1 -70q0 -79 8 -82q134 15 205 60zM250 184q-214 188 -214 477q0 258 184.5 442.5t445.5 184.5q259 0 443.5 -184.5t184.5 -442.5
q0 -262 -184.5 -447t-443.5 -185q-101 0 -206 33l-355 -158z" />
    <glyph glyph-name="percent" unicode="%" 
d="M1082 363q-19 94 -27.5 140t-16 118.5t-7.5 141.5q0 106 16 239l-235 -57q-15 -71 -42 -162.5t-50 -146.5q-1 18 -1 40q0 130 24 320l-241 -59q-20 -91 -49.5 -173t-72.5 -166t-77 -142t-92 -153q28 0 70.5 4.5t82 11.5t61.5 14q17 26 34 63t34.5 81t31.5 81.5t31 86
t26 72.5q-12 -132 -12 -243q0 -23 1 -44q3 -129 19 -132q107 14 180 53q14 3 18 6q7 29 29 132t39.5 173t35.5 121q-18 -179 -22 -328q-1 -40 -1 -70q0 -79 8 -82q134 15 205 60zM250 184q-214 188 -214 477q0 258 184.5 442.5t445.5 184.5q259 0 443.5 -184.5t184.5 -442.5
q0 -262 -184.5 -447t-443.5 -185q-101 0 -206 33l-355 -158z" />
    <glyph glyph-name="ampersand" unicode="&#x26;" horiz-adv-x="1188" 
d="M414 533q-99 39 -182 125q-45 46 -45 136q0 78 34 190q52 179 162.5 294.5t274.5 143.5q48 7 96 7q79 0 155.5 -21.5t134.5 -57t100 -81.5l-225 -380q-80 90 -194 90q-35 0 -74 -8q-143 -33 -143 -146q0 -16 3 -34q2 -19 19 -36.5t36 -30t51.5 -25.5t51 -19t48.5 -16
q3 0 4.5 -0.5t3.5 -1.5t4 -1q48 -6 100 -9q16 37 63 134l257 82l-25 -45q-23 -45 -51 -119q77 23 158 42q-68 -127 -71 -247q-68 -33 -158 -45q-21 -98 -21 -169q0 -114 58 -114h5q54 5 131 42l3 -335l-98 -35q-54 -19 -98 -19q-35 0 -63 12q-128 54 -181 155
q-124 -55 -255 -55q-179 0 -297 98q-72 60 -72 149q0 46 20 100q31 91 101.5 149t178.5 101zM710 298q12 65 42 151q-48 3 -83 3q-129 0 -217 -54q-74 -45 -74 -79q0 -22 32 -39q69 -38 134 -38q76 0 166 56z" />
    <glyph glyph-name="quotesingle" unicode="'" horiz-adv-x="607" 
d="M327 1382l383 111l-32 -148q-36 -160 -76.5 -249.5t-126.5 -180.5l-89 -95l-210 88l39 82q41 83 74 148q26 63 29 109z" />
    <glyph glyph-name="parenleft" unicode="(" 
d="M1082 363q-19 94 -27.5 140t-16 118.5t-7.5 141.5q0 106 16 239l-235 -57q-15 -71 -42 -162.5t-50 -146.5q-1 18 -1 40q0 130 24 320l-241 -59q-20 -91 -49.5 -173t-72.5 -166t-77 -142t-92 -153q28 0 70.5 4.5t82 11.5t61.5 14q17 26 34 63t34.5 81t31.5 81.5t31 86
t26 72.5q-12 -132 -12 -243q0 -23 1 -44q3 -129 19 -132q107 14 180 53q14 3 18 6q7 29 29 132t39.5 173t35.5 121q-18 -179 -22 -328q-1 -40 -1 -70q0 -79 8 -82q134 15 205 60zM250 184q-214 188 -214 477q0 258 184.5 442.5t445.5 184.5q259 0 443.5 -184.5t184.5 -442.5
q0 -262 -184.5 -447t-443.5 -185q-101 0 -206 33l-355 -158z" />
    <glyph glyph-name="parenright" unicode=")" 
d="M1082 363q-19 94 -27.5 140t-16 118.5t-7.5 141.5q0 106 16 239l-235 -57q-15 -71 -42 -162.5t-50 -146.5q-1 18 -1 40q0 130 24 320l-241 -59q-20 -91 -49.5 -173t-72.5 -166t-77 -142t-92 -153q28 0 70.5 4.5t82 11.5t61.5 14q17 26 34 63t34.5 81t31.5 81.5t31 86
t26 72.5q-12 -132 -12 -243q0 -23 1 -44q3 -129 19 -132q107 14 180 53q14 3 18 6q7 29 29 132t39.5 173t35.5 121q-18 -179 -22 -328q-1 -40 -1 -70q0 -79 8 -82q134 15 205 60zM250 184q-214 188 -214 477q0 258 184.5 442.5t445.5 184.5q259 0 443.5 -184.5t184.5 -442.5
q0 -262 -184.5 -447t-443.5 -185q-101 0 -206 33l-355 -158z" />
    <glyph glyph-name="asterisk" unicode="*" 
d="M1082 363q-19 94 -27.5 140t-16 118.5t-7.5 141.5q0 106 16 239l-235 -57q-15 -71 -42 -162.5t-50 -146.5q-1 18 -1 40q0 130 24 320l-241 -59q-20 -91 -49.5 -173t-72.5 -166t-77 -142t-92 -153q28 0 70.5 4.5t82 11.5t61.5 14q17 26 34 63t34.5 81t31.5 81.5t31 86
t26 72.5q-12 -132 -12 -243q0 -23 1 -44q3 -129 19 -132q107 14 180 53q14 3 18 6q7 29 29 132t39.5 173t35.5 121q-18 -179 -22 -328q-1 -40 -1 -70q0 -79 8 -82q134 15 205 60zM250 184q-214 188 -214 477q0 258 184.5 442.5t445.5 184.5q259 0 443.5 -184.5t184.5 -442.5
q0 -262 -184.5 -447t-443.5 -185q-101 0 -206 33l-355 -158z" />
    <glyph glyph-name="plus" unicode="+" 
d="M1082 363q-19 94 -27.5 140t-16 118.5t-7.5 141.5q0 106 16 239l-235 -57q-15 -71 -42 -162.5t-50 -146.5q-1 18 -1 40q0 130 24 320l-241 -59q-20 -91 -49.5 -173t-72.5 -166t-77 -142t-92 -153q28 0 70.5 4.5t82 11.5t61.5 14q17 26 34 63t34.5 81t31.5 81.5t31 86
t26 72.5q-12 -132 -12 -243q0 -23 1 -44q3 -129 19 -132q107 14 180 53q14 3 18 6q7 29 29 132t39.5 173t35.5 121q-18 -179 -22 -328q-1 -40 -1 -70q0 -79 8 -82q134 15 205 60zM250 184q-214 188 -214 477q0 258 184.5 442.5t445.5 184.5q259 0 443.5 -184.5t184.5 -442.5
q0 -262 -184.5 -447t-443.5 -185q-101 0 -206 33l-355 -158z" />
    <glyph glyph-name="comma" unicode="," horiz-adv-x="693" 
d="M423 423q85 -3 135 -65.5t50 -156.5q0 -14 -1 -28q-12 -105 -88 -258t-323 -218q-12 0 -45.5 13.5t-33.5 28.5q0 6 5 11q33 39 91 97q50 50 50 84q0 5 -2 9q-130 43 -130 172q0 34 8 72q19 95 100.5 167t183.5 72z" />
    <glyph glyph-name="hyphen" unicode="-" horiz-adv-x="866" 
d="M764 414q-61 4 -124 4q-125 0 -245 -15t-276 -43l35 230q272 82 706 108z" />
    <glyph glyph-name="period" unicode="." horiz-adv-x="678" 
d="M395 440q81 0 134 -56t53 -140q0 -25 -6 -51q-16 -97 -94 -170.5t-179 -73.5q-82 0 -134 55t-52 138q0 25 5 51q16 96 95 171.5t178 75.5z" />
    <glyph glyph-name="slash" unicode="/" horiz-adv-x="955" 
d="M889 1498q167 72 172.5 85.5t82.5 19.5q-193 -351 -468.5 -903.5t-431.5 -904.5l-360 -113q321 665 769 1437q131 226 236 379z" />
    <glyph glyph-name="zero" unicode="0" horiz-adv-x="1071" 
d="M707 1404q18 1 35 1q435 0 435 -476q0 -94 -17 -206q-13 -86 -35 -168t-55.5 -163t-75 -151t-96.5 -130t-119 -103t-143.5 -68t-167.5 -26h-8q-283 0 -368 213q-54 136 -54 309q0 101 19 216q50 309 202.5 523.5t447.5 228.5zM696 964h-10q-84 0 -167 -102
q-59 -72 -104 -191t-45 -236q0 -64 15 -120q29 -108 119 -108q9 0 19 1q42 3 81.5 23.5t70.5 53.5t58 73.5t48 88t36 92.5t25 91q18 77 18 135q0 72 -27 114q-49 76 -137 85z" />
    <glyph glyph-name="one" unicode="1" horiz-adv-x="678" 
d="M383 1297q131 53 217.5 54.5t157.5 7.5q-116 -383 -164.5 -731t-79.5 -589l-418 -81q64 434 222 970q2 5 2 9q0 13 -16 13t-67 -19t-66 -19q-12 0 -12 9q0 4 2 10q12 39 99 188t123 178z" />
    <glyph glyph-name="two" unicode="2" horiz-adv-x="1113" 
d="M987 -12q-191 37 -371 37q-253 0 -580 -82l55 310l19 3v11q0 33 29 62q34 34 74 79q176 179 353 264.5t302 187.5q54 43 54 78q0 38 -60 67q-100 49 -158 49q-9 0 -17 -1q-125 -18 -211 -99q-42 -42 -42 -56.5t-23 -40.5q-57 14 -153.5 66.5t-138.5 117.5
q54 148 221.5 254t298.5 106q218 0 424 -100q174 -85 174 -261q0 -32 -6 -67q-45 -256 -236.5 -348t-393.5 -271q183 27 321 27q87 0 173 -9z" />
    <glyph glyph-name="three" unicode="3" horiz-adv-x="1086" 
d="M839 542q175 -93 175 -272q0 -7 -1 -14q-2 -162 -143 -244.5t-323 -82.5q-110 0 -263 92t-165 229q36 59 117.5 103.5t132.5 60.5q17 -23 15.5 -37t35.5 -50q71 -74 175 -89q7 -1 16 -1q47 0 132 43q52 26 52 61q0 31 -43 70q-45 39 -75 61q-18 13 -65 13q-31 0 -76 -6
q2 36 18 105t20 97q223 46 265 119q23 43 23 76q0 57 -68 86q-81 35 -134 35q-16 0 -30 -4q-18 -4 -34.5 -7t-26 -4t-19 -1.5t-16 -2t-13 -5t-13.5 -10.5t-15 -17.5t-20 -26.5l-351 190q110 154 212.5 213.5t289.5 68.5q26 1 51 1q89 0 165.5 -13.5t142 -43t111.5 -74
t72 -109t26 -144.5q0 -25 -3 -51q-20 -244 -129.5 -313t-220.5 -102z" />
    <glyph glyph-name="four" unicode="4" horiz-adv-x="1086" 
d="M854 1294q12 5 34 13q92 38 132.5 46.5t139.5 8.5q-81 -214 -149 -523q98 0 167 -7l-134 -383h-28q-26 0 -65 3q-8 -60 -24 -210t-30 -227l-421 -77q8 48 17 98.5t22.5 111t21.5 97.5t25.5 111.5t22.5 97.5q-138 -3 -200 -12.5t-189 -44.5q-107 -29 -122 -29q-3 0 -3 1
l-11 250q145 198 240 340t137 346q64 9 119 20.5t117.5 28t106.5 25.5q-17 -36 -46.5 -102t-44 -97t-40.5 -84t-43.5 -84t-46 -76t-55.5 -79.5t-63 -76t-78 -82.5q105 57 321 102q87 286 170 494z" />
    <glyph glyph-name="five" unicode="5" horiz-adv-x="1100" 
d="M253 1266q130 35 263 57.5t217 31t256.5 23t270.5 23.5l-116 -428q-159 29 -330 29q-93 0 -190 -9l-82 -167q24 1 47 1q168 0 272 -68t150 -209q16 -51 16 -103q0 -66 -26.5 -132.5t-69 -120.5t-97 -101.5t-109 -80.5t-106.5 -54q-70 -27 -168 -27q-75 0 -166 15
q-211 37 -285 182q15 80 88 166t117 123q29 -18 35.5 -33t62.5 -38q75 -34 153 -34q39 0 80 9q56 12 139 98q33 34 33 67q0 50 -75 96q-48 26 -88 26q-33 0 -66.5 -15t-83.5 -49l-213 46l85 349q-10 -1 -22 -4t-24 -5.5t-22 -4.5z" />
    <glyph glyph-name="six" unicode="6" horiz-adv-x="1142" 
d="M752 1388h24q175 0 298 -40q133 -43 217 -69q-202 -151 -330.5 -231.5t-246.5 -185.5q239 -101 297 -211q30 -56 42.5 -81.5t24.5 -65t12 -75.5q0 -55 -24 -124q-42 -117 -134.5 -207t-202.5 -118q-134 -34 -295 -37q-70 0 -119.5 8.5t-87.5 31.5q-87 43 -139.5 128.5
t-52.5 197.5q0 72 23 148q56 185 171.5 363.5t261.5 333.5q145 154 261 234zM601 211q86 104 86 186q0 125 -202 198q-62 -51 -97 -135q-3 -9 -13 -33t-15.5 -38t-12.5 -35t-10.5 -39.5t-3.5 -34.5q0 -51 36 -79q48 -37 101 -37q13 -1 25 -1q66 0 106 48z" />
    <glyph glyph-name="seven" unicode="7" horiz-adv-x="1071" 
d="M678 982q-188 -28 -300 -28q-110 0 -208 22l88 400q210 -37 369 -37q92 0 167 12q205 34 475 44l-131 -342q-371 -398 -452.5 -616.5t-117.5 -403.5l-449 -101q33 202 154.5 451.5t404.5 598.5z" />
    <glyph glyph-name="eight" unicode="8" horiz-adv-x="1071" 
d="M166 1141q35 55 89 103.5t122 85t152 57.5t173 21q50 0 105 -6q174 -20 260.5 -84.5t140.5 -214.5q21 -57 21 -116q0 -51 -16.5 -105.5t-42.5 -101.5t-59.5 -90.5t-66.5 -75t-64 -53.5q-98 -68 -128 -68q-17 0 -39 4.5t-24 4.5q-4 0 -4 -2q0 -4 18 -32q1 -5 9 -25
q42 -102 42 -193q-9 -159 -132 -243q-137 -93 -296 -93q-135 0 -262 69q-47 27 -87 98.5t-40 145.5q0 54 22 115q32 92 162 181q-66 47 -109.5 132t-43.5 188q0 86 22.5 149t75.5 149zM395 414q-33 -34 -86 -90q-39 -41 -39 -72q0 -12 6 -23q20 -36 39 -50t46 -14
q18 0 79 11q85 12 85 85q0 12 -2 25q-37 68 -106 115l-26 14q7 -4 4 -1zM782 840q0 28 -19 51t-48 36t-58.5 20t-54.5 7q-54 0 -86 -19.5t-67 -67.5q-17 -23 -17 -46q0 -19 10.5 -37.5t33 -36.5t38.5 -28.5t44 -27.5l3 -1.5t2.5 -1.5l3 -2t2.5 -1q50 -30 97 -66
q116 143 116 221z" />
    <glyph glyph-name="nine" unicode="9" horiz-adv-x="997" 
d="M36 23q65 38 90.5 53.5t77 48t78 53.5t65.5 53t69 65.5t60 72.5q-148 29 -269 122.5t-127 340.5v10q0 258 268 458q37 26 123 51.5t153 33.5q23 2 45 2q123 0 247 -54q99 -48 148 -149.5t49 -233.5q0 -170 -75 -340q-99 -227 -295 -404t-416 -277q-106 9 -164 28t-127 66
zM601 574q5 6 19.5 23t18.5 21.5t14.5 18t14 20t11 19t11.5 23t9.5 25t10.5 31.5q10 33 10 69q0 31 -7 64q-15 73 -86 82q-16 2 -31 2q-138 0 -162 -143q-5 -24 -5 -48q0 -63 34 -123q47 -82 138 -84z" />
    <glyph glyph-name="colon" unicode=":" horiz-adv-x="693" 
d="M395 440q81 0 134 -56t53 -140q0 -25 -6 -51q-16 -97 -94 -170.5t-179 -73.5q-82 0 -134 55t-52 138q0 25 5 51q16 96 95 171.5t178 75.5zM497 1384q53 0 96 -25.5t66.5 -70.5t23.5 -100q0 -25 -5 -51q-10 -63 -48 -118.5t-98 -90.5t-127 -35q-82 0 -134.5 54.5
t-52.5 138.5q0 25 6 51q16 96 94.5 171.5t178.5 75.5z" />
    <glyph glyph-name="semicolon" unicode=";" horiz-adv-x="693" 
d="M497 1384q80 0 133 -56t53 -140q0 -25 -5 -51q-8 -47 -32.5 -91t-60 -78t-83 -54.5t-97.5 -20.5q-82 0 -134.5 54.5t-52.5 138.5q0 25 6 51q16 96 94.5 171.5t178.5 75.5zM423 423q85 -3 135 -65.5t50 -156.5q0 -14 -1 -28q-12 -105 -88 -258t-323 -218q-12 0 -45.5 13.5
t-33.5 28.5q0 6 5 11q33 39 91 97q50 50 50 84q0 5 -2 9q-130 43 -130 172q0 34 8 72q13 61 53 115.5t101.5 89t129.5 34.5z" />
    <glyph glyph-name="less" unicode="&#x3c;" 
d="M1082 363q-19 94 -27.5 140t-16 118.5t-7.5 141.5q0 106 16 239l-235 -57q-15 -71 -42 -162.5t-50 -146.5q-1 18 -1 40q0 130 24 320l-241 -59q-20 -91 -49.5 -173t-72.5 -166t-77 -142t-92 -153q28 0 70.5 4.5t82 11.5t61.5 14q17 26 34 63t34.5 81t31.5 81.5t31 86
t26 72.5q-12 -132 -12 -243q0 -23 1 -44q3 -129 19 -132q107 14 180 53q14 3 18 6q7 29 29 132t39.5 173t35.5 121q-18 -179 -22 -328q-1 -40 -1 -70q0 -79 8 -82q134 15 205 60zM250 184q-214 188 -214 477q0 258 184.5 442.5t445.5 184.5q259 0 443.5 -184.5t184.5 -442.5
q0 -262 -184.5 -447t-443.5 -185q-101 0 -206 33l-355 -158z" />
    <glyph glyph-name="equal" unicode="=" 
d="M1082 363q-19 94 -27.5 140t-16 118.5t-7.5 141.5q0 106 16 239l-235 -57q-15 -71 -42 -162.5t-50 -146.5q-1 18 -1 40q0 130 24 320l-241 -59q-20 -91 -49.5 -173t-72.5 -166t-77 -142t-92 -153q28 0 70.5 4.5t82 11.5t61.5 14q17 26 34 63t34.5 81t31.5 81.5t31 86
t26 72.5q-12 -132 -12 -243q0 -23 1 -44q3 -129 19 -132q107 14 180 53q14 3 18 6q7 29 29 132t39.5 173t35.5 121q-18 -179 -22 -328q-1 -40 -1 -70q0 -79 8 -82q134 15 205 60zM250 184q-214 188 -214 477q0 258 184.5 442.5t445.5 184.5q259 0 443.5 -184.5t184.5 -442.5
q0 -262 -184.5 -447t-443.5 -185q-101 0 -206 33l-355 -158z" />
    <glyph glyph-name="greater" unicode="&#x3e;" 
d="M1082 363q-19 94 -27.5 140t-16 118.5t-7.5 141.5q0 106 16 239l-235 -57q-15 -71 -42 -162.5t-50 -146.5q-1 18 -1 40q0 130 24 320l-241 -59q-20 -91 -49.5 -173t-72.5 -166t-77 -142t-92 -153q28 0 70.5 4.5t82 11.5t61.5 14q17 26 34 63t34.5 81t31.5 81.5t31 86
t26 72.5q-12 -132 -12 -243q0 -23 1 -44q3 -129 19 -132q107 14 180 53q14 3 18 6q7 29 29 132t39.5 173t35.5 121q-18 -179 -22 -328q-1 -40 -1 -70q0 -79 8 -82q134 15 205 60zM250 184q-214 188 -214 477q0 258 184.5 442.5t445.5 184.5q259 0 443.5 -184.5t184.5 -442.5
q0 -262 -184.5 -447t-443.5 -185q-101 0 -206 33l-355 -158z" />
    <glyph glyph-name="question" unicode="?" horiz-adv-x="1178" 
d="M719 245q94 0 161 -46.5t67 -127.5q0 -22 -6 -46q-8 -31 -25 -60.5t-41 -54t-55 -45.5t-65 -35.5t-72 -23t-76 -8.5q-64 0 -115 20t-81.5 61t-30.5 98q0 23 5 48q12 65 62 116.5t121.5 77.5t150.5 26zM118 996q55 167 239.5 285.5t330.5 118.5q241 -2 477 -112
q204 -95 204 -299q0 -33 -6 -68q-29 -196 -137.5 -234.5t-219.5 -99.5q-16 -10 -38.5 -43t-35.5 -58q-12 -49 -12 -75t-7 -63l-450 -43q18 87 52 188q21 64 59.5 109.5t93 74t129.5 45.5q108 23 166 71q57 48 57 87q0 43 -69 76q-116 56 -181 56q-8 0 -16 -1
q-137 -19 -234 -112q-47 -44 -47.5 -61.5t-22.5 -46.5q-62 18 -173 74.5t-159 130.5z" />
    <glyph glyph-name="at" unicode="@" horiz-adv-x="1636" 
d="M948 934q73 -11 93 -19t51 -35q0 4 9 30q12 33 26.5 49.5t33.5 22t53 5.5q12 0 35 -1q4 0 14.5 -0.5t16 -0.5t15 -0.5t15 -1.5t13 -2.5t11.5 -4t8 -5.5t6 -7.5t2 -10.5t-3 -14q-11 -25 -47 -101.5t-54.5 -116.5t-46.5 -103t-48 -114q-24 -58 -24 -99q0 -64 61 -64
q11 0 23 2q179 29 261 177q72 135 72 302q0 13 -1 26q-2 55 -20.5 105t-49 89.5t-71 71t-86.5 52.5t-96 32q-112 23 -227 23q-187 0 -318 -58q-181 -83 -279.5 -226.5t-117.5 -360.5q-5 -53 -5 -99q0 -126 36 -218t113 -160q131 -116 316 -153q56 -8 79 -8l-100 -170
q-21 -3 -43 -3q-145 0 -329 134q-211 155 -256 348q-32 128 -32 253q0 182 62 341t167 286q64 78 122.5 117.5t167.5 84.5q210 83 435 83q156 0 302 -42q129 -37 233 -115q199 -159 212 -366q1 -24 1 -48q0 -184 -85 -373q-26 -60 -61 -110t-82 -92t-103 -71t-127 -46.5
t-152 -19.5h-14q-146 0 -233 84q-34 27 -34 72v7q0 2 3 20q-26 -6 -11 -7h1q0 -2 -91 -4q-5 -1 -9 -1q-103 0 -206 69q-78 52 -78 164q0 42 11 91q36 185 183 257q114 57 219 57q30 0 58 -4zM1029 732q-19 15 -71 15q-9 0 -19 -1q-56 0 -139 -14.5t-119 -110.5
q-15 -38 -15 -70q0 -46 32 -77q51 -49 121 -49q50 0 97 27q72 197 113 280z" />
    <glyph glyph-name="A" unicode="A" horiz-adv-x="1051" 
d="M1024 258q18 -123 42 -225q-140 -85 -408 -124q-23 6 -23 186q0 53 2 123q-95 -21 -146 -31q-4 -1 -7 -1q-28 0 -28 64v6q-65 -169 -125 -276q-72 -22 -206.5 -44t-215.5 -22q196 355 339 678.5t220 689.5l294 65l228 66q-28 -287 -28 -509q0 -189 20 -374q56 5 143 17
l-90 -289h-11zM510 411q59 23 133 43q12 284 45 619q-2 -9 -17.5 -73t-19 -79t-17.5 -71.5t-20 -78.5t-19 -71t-21 -77.5t-19.5 -69t-22.5 -75t-22 -67.5z" />
    <glyph glyph-name="B" unicode="B" horiz-adv-x="1231" 
d="M417 1076q-18 -2 -69.5 -11.5t-80.5 -11.5q-1 7 -1 15q0 27 8 69q9 55 53 151q421 92 623 92q9 0 17 -1q93 -2 180 -59t122 -128q28 -56 28 -119q0 -93 -54.5 -179.5t-127.5 -132.5q131 -63 179 -157q21 -48 21 -107q0 -87 -41 -176.5t-91 -138.5q-61 -62 -171.5 -109.5
t-224 -73.5t-241.5 -42q-165 -20 -300 -20q-18 0 -35 1q-149 2 -172 23q-3 2 -3 17q0 37 22 157q31 166 55 171q23 3 108 6q-58 13 -58 43q0 4 1 8q48 236 163 598q17 63 90 115zM542 315q44 3 81.5 7.5t80 12.5t76 21t63.5 31t50.5 43.5t28.5 57.5q5 19 5 35
q0 100 -177 100q-78 0 -174 -19q-23 -152 -34 -289zM604 772q96 12 201 37.5t114 121.5q1 7 1 14q0 46 -18 78t-52 49t-74 24.5t-92 7.5q-44 -141 -80 -332z" />
    <glyph glyph-name="C" unicode="C" horiz-adv-x="1033" 
d="M743 1401q20 1 39 1q272 0 378 -236l-292 -272q-48 69 -136 70q-49 -1 -95 -24.5t-81 -60.5t-64.5 -85.5t-49 -98t-31.5 -100.5q-22 -89 -22 -171q0 -47 8 -85t24 -69t45 -48.5t67 -17.5q7 0 14 1q63 4 128.5 48.5t110.5 100.5l116 -209q-47 -57 -88.5 -95.5t-90.5 -66.5
t-105 -44.5t-130 -27.5q-20 -1 -38 -1q-240 0 -341 208q-73 151 -73 339q0 93 18 195q16 94 46.5 182.5t74 170.5t102 151t128.5 122t156.5 85t181.5 38z" />
    <glyph glyph-name="D" unicode="D" horiz-adv-x="1234" 
d="M283 860q15 56 65 104q-14 -4 -46 -13.5t-55.5 -15t-46.5 -7.5q-2 27 -2 50q0 67 14.5 123t50.5 145q407 129 630 129q21 0 39 -1q67 -5 126 -31t104.5 -67.5t80 -96t55.5 -117t29 -128.5q3 -28 3 -58q0 -100 -36 -233q-47 -175 -137 -283q-112 -136 -220 -216t-260 -135
q-203 -72 -336 -72q-6 0 -11 1h-68q-102 0 -207 -6q-6 0 3 14q46 318 225 914zM467 179q63 17 132 59t175 131q91 74 114 245q14 104 14 162q0 38 -6 56q-57 161 -253 170q-124 -411 -176 -823z" />
    <glyph glyph-name="E" unicode="E" horiz-adv-x="1113" 
d="M261 883q-23 -3 -100 -18l68 381q265 50 505.5 78t522.5 41l-106 -369q-246 -9 -559 -54q-23 -104 -47 -238q174 62 437 102l-74 -292q-194 0 -403 -57q-3 -28 -9.5 -88t-10.5 -93q16 3 89 17.5t99.5 19.5t90.5 16t103.5 16t94 9.5t102.5 5.5l-97 -345q-296 0 -482 -14
t-440 -55q74 529 216 937z" />
    <glyph glyph-name="F" unicode="F" horiz-adv-x="1071" 
d="M256 897q-20 -4 -54.5 -10.5t-50.5 -9.5l70 383q264 51 504.5 78.5t523.5 40.5l-108 -368q-252 -9 -559 -57q-29 -125 -46 -247q178 63 437 102l-76 -292h-34q-169 0 -364 -54q-5 -43 -23.5 -199.5t-29.5 -240.5l-410 -83q74 538 220 957z" />
    <glyph glyph-name="G" unicode="G" horiz-adv-x="1074" 
d="M556 630q148 0 249 13t287 55q4 -39 4 -73q0 -57 -11.5 -106t-40.5 -130l-17 -3q-27 -57 -59 -109.5t-72 -104t-87 -94.5t-100.5 -77.5t-116 -56t-129.5 -27.5q-18 -1 -35 -1q-225 0 -321 208q-71 154 -71 347q0 89 15 187q15 92 43.5 179.5t69.5 169.5t96.5 151.5
t121.5 123t148.5 86.5t173.5 39q19 1 37 1q259 0 357 -236l-278 -270q-45 68 -127 68q-47 -1 -90.5 -25.5t-76 -62.5t-60.5 -87.5t-46.5 -98t-30.5 -98.5q-21 -86 -21 -169q0 -62 12.5 -109.5t43.5 -78.5t79 -31q8 0 17 1q113 8 212 164q-131 0 -215 23q-6 24 -6 50
q0 30 7 60t21 70.5t17 51.5z" />
    <glyph glyph-name="H" unicode="H" horiz-adv-x="1188" 
d="M1186 488h-53q-7 -47 -20.5 -143.5t-23.5 -170.5t-16 -138l-421 -84q26 205 91 494q-23 -5 -103 -20t-123 -25q-45 -224 -68 -386l-413 -72q48 274 166.5 687t211.5 630q84 31 120 41t76.5 15.5t118.5 9.5q-63 -223 -153 -636q111 48 247 82q80 307 159 507
q118 48 162.5 59t152.5 15q-57 -220 -108 -518q14 0 30 1.5t35.5 4.5t30.5 4z" />
    <glyph glyph-name="I" unicode="I" horiz-adv-x="607" 
d="M36 -42q42 281 144 695t186 629q60 24 92.5 36t70.5 20.5t68 12t93 8.5q-61 -248 -131.5 -649.5t-101.5 -670.5z" />
    <glyph glyph-name="J" unicode="J" horiz-adv-x="955" 
d="M729 973q-48 -5 -94 -5q-99 0 -186 22l53 256q167 0 295 29.5t341 125.5l-65 -348q-60 -21 -103 -37q13 -29 13 -58q0 -9 -1 -19q-57 -283 -177.5 -612.5t-384.5 -388.5q-78 -18 -142 -18q-84 0 -150 30t-128 92q45 134 167 344q12 -8 59 -38t112 -30q29 -2 48 -2
q43 0 71 13t57 49q30 33 56.5 82t44.5 91.5t39.5 114t32 109.5t30.5 119q5 25 12 79z" />
    <glyph glyph-name="K" unicode="K" horiz-adv-x="1231" 
d="M772 621q48 -56 98.5 -103.5t96.5 -82.5t108 -71.5t114.5 -63t133.5 -65.5l-381 -342q-114 103 -228.5 251.5t-193.5 298.5q-48 -241 -71 -420l-413 -74q49 278 167.5 701t210.5 644q115 44 160 53.5t155 14.5q-70 -256 -128 -542q25 22 48 45.5t41.5 42.5t38.5 47
t32.5 44t31.5 49.5t27.5 47.5t28 53.5t25.5 52t28.5 59t28.5 59.5l416 -95q-133 -241 -258 -367t-317 -237z" />
    <glyph glyph-name="L" unicode="L" horiz-adv-x="961" 
d="M452 1308q114 45 156 54.5t150 13.5q-119 -438 -199 -894q-14 -80 -51 -144q184 40 436 40h35l-102 -366q-321 -3 -477 -12t-364 -68l66 295l43 14q3 57 28 139q60 250 134.5 504t144.5 424z" />
    <glyph glyph-name="M" unicode="M" horiz-adv-x="1663" 
d="M662 791q-14 -36 -68.5 -184t-87 -233t-82.5 -198.5t-89 -178.5q-81 -23 -216.5 -44t-223.5 -21q205 342 365.5 653.5t241.5 666.5l494 124q-50 -418 -50 -666q0 -45 2 -83q33 76 72 196.5t70.5 237t53.5 212.5l485 115q-34 -296 -34 -517q0 -163 19 -285
q44 -285 92 -526q-139 -83 -428 -122q-22 4 -22 174q0 59 3 139q10 308 49 677q-10 -31 -44 -127.5t-54 -155.5t-50 -158t-47 -170.5t-29.5 -154.5t-11.5 -147q0 -1 -6 -1t-16 -3t-19 -11q-87 -78 -171.5 -101t-206.5 -6q-7 1 -9 41t-1 108t-2 159q-2 58 -2 119
q0 220 23 471z" />
    <glyph glyph-name="N" unicode="N" horiz-adv-x="1317" 
d="M36 -45q42 281 144 695t186 629q111 45 160 56.5t164 20.5l13 -106q27 -221 85 -544q27 -150 57 -238q29 243 81 463t127 354q110 46 205.5 72.5t194.5 30.5q-64 -202 -99.5 -321.5t-84.5 -303t-81.5 -355.5t-52.5 -348l-320 -128l-122 167q-78 106 -115.5 180t-63.5 173
q-39 -244 -57 -413z" />
    <glyph glyph-name="O" unicode="O" horiz-adv-x="1092" 
d="M722 1398q19 2 38 2q104 0 186 -40.5t134.5 -112t79.5 -167t27 -207.5q0 -74 -12 -153q-18 -110 -59 -220t-104.5 -213t-142.5 -184t-179.5 -133.5t-208.5 -60.5q-21 -2 -41 -2q-220 0 -316 205q-71 153 -71 346q0 89 15 187q19 110 55.5 214t94 199.5t130 167.5
t169.5 118.5t205 53.5zM710 961q-39 -1 -76 -18t-66.5 -46t-55.5 -65t-46 -78t-34.5 -83t-24.5 -81q-21 -87 -21 -170q0 -62 12 -109t43.5 -78.5t78.5 -31.5q9 0 17 1q50 4 96 33t80.5 72t63.5 98.5t48 109.5t32 109q19 86 19 149q0 188 -162 188h-4z" />
    <glyph glyph-name="P" unicode="P" horiz-adv-x="1152" 
d="M36 -62q53 363 219 924q12 51 60 99q-86 -20 -134 -30q-2 23 -2 45q0 47 8.5 93t20.5 83.5t35 99.5q92 29 190 55t229 49.5t223 23.5q14 0 28 -1q68 -4 140 -43t124 -96.5t71 -115.5q23 -65 23 -139q0 -103 -39 -205t-94 -173q-188 -244 -557 -244q-42 0 -85 3
q-7 -62 -19.5 -179t-19.5 -175zM522 539q102 23 216.5 66t126.5 159q1 13 1 25q0 206 -242 213q-61 -204 -102 -463z" />
    <glyph glyph-name="Q" unicode="Q" horiz-adv-x="1063" 
d="M139 -80q13 6 60.5 15t56.5 11q-220 151 -220 480q0 93 18 198q42 265 220 500t430 252q17 1 32 1q229 0 341 -195q91 -156 91 -351q0 -66 -11 -135q-43 -261 -176 -455.5t-333 -291.5q94 -18 188 -49t148 -67l-178 -296q-154 83 -301 173q-70 43 -174 43
q-116 0 -274 -54zM693 937q-96 0 -180 -104q-57 -70 -101.5 -190t-44.5 -236q0 -63 15 -117q30 -109 123 -109h15q50 5 96 34t80.5 72t63.5 99t48 110.5t31 110.5q19 83 19 146q0 184 -162 184h-3z" />
    <glyph glyph-name="R" unicode="R" horiz-adv-x="1171" 
d="M36 -65q53 363 220 925q14 53 59 94q-102 -23 -134 -26q-1 23 -1 45q0 47 8.5 93t20.5 83.5t35 99.5q408 129 630 129q21 0 39 -2q132 -8 225 -78t131 -177q22 -63 22 -136q0 -103 -39.5 -205.5t-94.5 -175.5q-73 -95 -176 -150t-243 -79q-3 0 -9 -3q99 -77 232.5 -118
t213.5 -49q-12 -77 -80 -172t-190 -143q-96 56 -221 152.5t-196 227.5q-23 -178 -31 -261zM523 550q101 24 216 67.5t126 159.5q1 12 1 24q0 53 -17 91.5t-50.5 61t-76 33t-98.5 12.5q-61 -202 -101 -449z" />
    <glyph glyph-name="S" unicode="S" horiz-adv-x="1011" 
d="M454 1342q137 52 247 52q97 0 236 -34q201 -49 201 -116q0 -8 -3 -16q-47 -178 -76.5 -294.5t-68.5 -192.5q-119 76 -204 139q-69 51 -146 51q-91 0 -151 -69q-17 -19 -17 -41q0 -40 61 -86q18 -15 77 -57.5t108.5 -81t72.5 -63.5q92 -109 92 -248q0 -24 -3 -50
q-15 -154 -144 -233q-137 -84 -295 -84q-130 0 -245 60q-122 64 -160 127l125 213q71 -62 147 -104q61 -33 130 -33q48 0 78 20.5t30 64.5q0 10 -2 20q-12 29 -52 64t-106 79.5t-81 56.5q-43 33 -74.5 63.5t-65.5 74t-52.5 97t-18.5 113.5q0 50 13 103q24 101 106 220
t241 185z" />
    <glyph glyph-name="T" unicode="T" horiz-adv-x="895" 
d="M1073 1391q0 -38 -6 -81t-18.5 -94t-21.5 -83.5t-26.5 -90t-21.5 -72.5q-137 6 -256 6q-74 -273 -101 -520.5t-54 -455.5l-423 -80q51 367 221 954q9 33 32 65q-140 -19 -273 -42q-6 28 -6 72q0 21 2 47q4 76 49 201q26 7 110.5 29.5t107.5 28.5t93.5 23t103.5 23.5
t99 19t117.5 19.5t122.5 15.5t149 15.5z" />
    <glyph glyph-name="U" unicode="U" horiz-adv-x="1113" 
d="M338 1276q116 43 164.5 53.5t161.5 15.5q-158 -566 -233 -956q-1 -9 -1 -17q0 -15 4.5 -26t15 -17.5t20.5 -11t28.5 -6t31 -2t34.5 -0.5h7q42 0 93 66q55 248 123.5 498.5t134.5 420.5q111 44 159 55.5t159 21.5q-56 -236 -122 -638t-105 -710l-431 -83q3 27 13 77
q-193 -73 -325 -73q-22 0 -43 2q-140 15 -170 222q-20 135 -20 204q0 36 5 53q52 212 124 411t172 440z" />
    <glyph glyph-name="V" unicode="V" horiz-adv-x="1071" 
d="M491 289q77 283 181.5 553t221.5 469q47 14 121 28t159 24.5t144 10.5h18q-205 -346 -363 -656t-235 -661l-301 -66l-241 -62q32 294 32 513q0 166 -18 289q-43 285 -91 529q142 83 425 122q22 -5 22 -138q0 -72 -6 -181q-18 -311 -69 -774z" />
    <glyph glyph-name="W" unicode="W" horiz-adv-x="1651" 
d="M1160 511q4 10 32.5 88.5t38.5 106.5t38.5 104t44 115t42.5 105t46 108t42 89t43 81q74 22 204.5 42.5t217.5 20.5h18q-208 -346 -367 -656t-240 -661l-491 -128q47 443 47 670q0 45 -2 82q-49 -113 -106 -307t-87 -342l-485 -115q32 295 32 514q0 166 -18 289
q-43 285 -91 529q142 83 426 122q21 -5 21 -175q0 -60 -3 -140q-10 -310 -46 -678q22 65 45 151.5t46.5 185.5t42.5 184t43 193.5t38 167.5q14 3 38 12q55 29 111.5 50t121 35.5t146.5 24.5q26 -5 33 -275q1 -54 1 -110q0 -224 -23 -483z" />
    <glyph glyph-name="X" unicode="X" horiz-adv-x="1303" 
d="M627 354q-83 -80 -130 -158.5t-108 -218.5l-353 100q102 218 217.5 319t257.5 194q-67 115 -105 207t-59 209t-21 265q0 31 1 65l419 62q-39 -207 -46 -346q-1 -18 -1 -37q0 -125 42 -277q153 116 199.5 304.5t109.5 339.5l401 -125q-131 -312 -239 -465t-315 -290
q76 -103 151.5 -152t214.5 -80l-255 -332q-49 15 -92 39t-79 55t-67 66.5t-57 77.5t-46.5 85.5t-39.5 92.5z" />
    <glyph glyph-name="Y" unicode="Y" horiz-adv-x="1026" 
d="M346 452q-134 217 -185 387q-43 144 -43 356q0 36 1 74l420 107q-51 -238 -51 -387q0 -132 38 -311q167 134 201 303.5t93 365.5l405 -127q-124 -330 -234.5 -479t-309.5 -281q-68 -267 -99 -434q-92 -10 -152.5 -20t-127 -28t-138.5 -46q39 193 131 454q8 39 51 66z" />
    <glyph glyph-name="Z" unicode="Z" horiz-adv-x="1057" 
d="M874 0q-163 5 -240 5q-159 0 -325 -20v-2l-235 -28l-38 253q227 403 571 700q-247 -34 -491 -82l83 417q278 48 526 73t535 31l-122 -402q-13 0 -39.5 -1.5t-39.5 -1.5q29 -27 29 -54q0 -29 -32 -56l-72 -64t-73.5 -66t-70.5 -64t-72 -66.5t-68.5 -66t-69.5 -69.5
t-64.5 -69t-63.5 -72q97 16 158.5 25t152 17.5t169.5 8.5z" />
    <glyph glyph-name="bracketleft" unicode="[" 
d="M1082 363q-19 94 -27.5 140t-16 118.5t-7.5 141.5q0 106 16 239l-235 -57q-15 -71 -42 -162.5t-50 -146.5q-1 18 -1 40q0 130 24 320l-241 -59q-20 -91 -49.5 -173t-72.5 -166t-77 -142t-92 -153q28 0 70.5 4.5t82 11.5t61.5 14q17 26 34 63t34.5 81t31.5 81.5t31 86
t26 72.5q-12 -132 -12 -243q0 -23 1 -44q3 -129 19 -132q107 14 180 53q14 3 18 6q7 29 29 132t39.5 173t35.5 121q-18 -179 -22 -328q-1 -40 -1 -70q0 -79 8 -82q134 15 205 60zM250 184q-214 188 -214 477q0 258 184.5 442.5t445.5 184.5q259 0 443.5 -184.5t184.5 -442.5
q0 -262 -184.5 -447t-443.5 -185q-101 0 -206 33l-355 -158z" />
    <glyph glyph-name="backslash" unicode="\" horiz-adv-x="1171" 
d="M360 1469q164 -298 416.5 -869t392.5 -948l-349 113q-126 366 -340.5 919.5t-360.5 888.5q74 -6 78.5 -19t162.5 -85z" />
    <glyph glyph-name="bracketright" unicode="]" 
d="M1082 363q-19 94 -27.5 140t-16 118.5t-7.5 141.5q0 106 16 239l-235 -57q-15 -71 -42 -162.5t-50 -146.5q-1 18 -1 40q0 130 24 320l-241 -59q-20 -91 -49.5 -173t-72.5 -166t-77 -142t-92 -153q28 0 70.5 4.5t82 11.5t61.5 14q17 26 34 63t34.5 81t31.5 81.5t31 86
t26 72.5q-12 -132 -12 -243q0 -23 1 -44q3 -129 19 -132q107 14 180 53q14 3 18 6q7 29 29 132t39.5 173t35.5 121q-18 -179 -22 -328q-1 -40 -1 -70q0 -79 8 -82q134 15 205 60zM250 184q-214 188 -214 477q0 258 184.5 442.5t445.5 184.5q259 0 443.5 -184.5t184.5 -442.5
q0 -262 -184.5 -447t-443.5 -185q-101 0 -206 33l-355 -158z" />
    <glyph glyph-name="asciicircum" unicode="^" 
d="M1082 363q-19 94 -27.5 140t-16 118.5t-7.5 141.5q0 106 16 239l-235 -57q-15 -71 -42 -162.5t-50 -146.5q-1 18 -1 40q0 130 24 320l-241 -59q-20 -91 -49.5 -173t-72.5 -166t-77 -142t-92 -153q28 0 70.5 4.5t82 11.5t61.5 14q17 26 34 63t34.5 81t31.5 81.5t31 86
t26 72.5q-12 -132 -12 -243q0 -23 1 -44q3 -129 19 -132q107 14 180 53q14 3 18 6q7 29 29 132t39.5 173t35.5 121q-18 -179 -22 -328q-1 -40 -1 -70q0 -79 8 -82q134 15 205 60zM250 184q-214 188 -214 477q0 258 184.5 442.5t445.5 184.5q259 0 443.5 -184.5t184.5 -442.5
q0 -262 -184.5 -447t-443.5 -185q-101 0 -206 33l-355 -158z" />
    <glyph glyph-name="underscore" unicode="_" horiz-adv-x="1520" 
d="M71 23q335 41 691 62t811 34l-128 -215q-139 5 -284 5q-442 0 -1125 -51z" />
    <glyph glyph-name="grave" unicode="`" 
d="M1082 363q-19 94 -27.5 140t-16 118.5t-7.5 141.5q0 106 16 239l-235 -57q-15 -71 -42 -162.5t-50 -146.5q-1 18 -1 40q0 130 24 320l-241 -59q-20 -91 -49.5 -173t-72.5 -166t-77 -142t-92 -153q28 0 70.5 4.5t82 11.5t61.5 14q17 26 34 63t34.5 81t31.5 81.5t31 86
t26 72.5q-12 -132 -12 -243q0 -23 1 -44q3 -129 19 -132q107 14 180 53q14 3 18 6q7 29 29 132t39.5 173t35.5 121q-18 -179 -22 -328q-1 -40 -1 -70q0 -79 8 -82q134 15 205 60zM250 184q-214 188 -214 477q0 258 184.5 442.5t445.5 184.5q259 0 443.5 -184.5t184.5 -442.5
q0 -262 -184.5 -447t-443.5 -185q-101 0 -206 33l-355 -158z" />
    <glyph glyph-name="a" unicode="a" horiz-adv-x="938" 
d="M871 303q7 -37 22 -110t17 -83q-116 -74 -345 -110q-22 5 -22 179q0 38 1 85q-19 -4 -60.5 -11.5t-60.5 -11.5h-5q-25 0 -29 60q-46 -131 -103 -239q-60 -18 -175.5 -37t-184.5 -19q167 300 289 577t184 586l253 59l196 54q-26 -248 -26 -437q0 -158 17 -315q58 6 119 17
l-75 -244h-12zM434 431q63 23 116 37q9 226 40 525q-95 -384 -156 -562z" />
    <glyph glyph-name="b" unicode="b" horiz-adv-x="1100" 
d="M283 877q15 57 77 102q-80 -15 -125 -22q-2 16 -2 31q0 28 7.5 57.5t16 49t26.5 59.5q50 12 71.5 16.5t78.5 16.5t95 18.5t89 14.5t95.5 11.5t82.5 3.5q16 0 31 -1q78 -3 152.5 -51t107.5 -107q21 -49 21 -99q0 -79 -45 -149.5t-108 -120.5q82 -39 123.5 -88.5
t41.5 -129.5q0 -42 -12 -93q-29 -124 -109.5 -195.5t-219.5 -112.5q-277 -83 -557 -83q-19 0 -37 1q-124 3 -145 20q-2 2 -2 12q0 31 18 136q25 141 47 147q23 6 88 6q-48 13 -48 39v6q15 78 38.5 167t41 144.5t49.5 156.5q2 6 3 9.5t3 8.5t3.5 10t2.5 9zM463 330
q292 15 328 146q4 15 4 29q0 46 -41 67t-108 21q-70 0 -149 -19q-19 -117 -34 -244zM517 720q83 9 173 29.5t98 104.5q1 6 1 13q0 132 -204 132q-42 -125 -68 -279z" />
    <glyph glyph-name="c" unicode="c" horiz-adv-x="849" 
d="M636 1260q16 1 32 1q230 0 322 -200l-247 -229q-41 58 -106 58q-44 0 -90.5 -25.5t-82.5 -66.5q-32 -37 -61 -93t-49.5 -128.5t-20.5 -139.5q0 -54 13 -99q26 -90 108 -90q48 0 112 32q58 29 109 92l95 -179q-77 -97 -154 -142.5t-196 -53.5q-17 -1 -32 -1
q-204 0 -290 175q-62 127 -62 287q0 78 15 163q16 96 49 185t85 169.5t117.5 141t151.5 99t182 44.5z" />
    <glyph glyph-name="d" unicode="d" horiz-adv-x="1046" 
d="M249 791q14 51 56 89q-23 -5 -65 -15t-62 -14q-2 19 -2 38q0 38 8 79t16.5 68t29.5 85q347 112 531 112q20 0 38 -2q56 -4 106 -27t88.5 -58.5t68.5 -82t49 -99t26 -107.5q3 -24 3 -50q0 -114 -46 -244t-102 -194q-98 -116 -190.5 -185t-220.5 -116q-177 -61 -291 -61h-5
q-23 1 -46 1l-183 -5q-6 0 0 12q44 291 193 776zM406 213q53 15 111.5 51.5t146.5 110.5q77 62 98 208q13 86 13 136q0 34 -6 51q-48 136 -211 146q-105 -337 -152 -703z" />
    <glyph glyph-name="e" unicode="e" horiz-adv-x="925" 
d="M221 803q-14 -2 -44 -9t-43 -8l59 326q411 77 874 99l-91 -314q-214 -5 -477 -46q-26 -122 -39 -203q148 53 372 87l-65 -247h-15q-140 0 -321 -51q-17 -119 -20 -151q76 16 121 25t115 20.5t133 18t125 7.5l-88 -295q-249 0 -406.5 -12t-374.5 -47q63 449 185 800z" />
    <glyph glyph-name="f" unicode="f" horiz-adv-x="890" 
d="M224 817q-42 -5 -90 -14l59 324q431 80 874 104l-91 -315q-214 -9 -477 -48q-20 -98 -39 -210q148 53 372 85l-65 -246h-16q-140 0 -320 -48q-3 -26 -20.5 -162.5t-24.5 -212.5l-350 -71q66 460 188 814z" />
    <glyph glyph-name="g" unicode="g" horiz-adv-x="920" 
d="M476 604q124 0 210 11.5t248 48.5q4 -35 4 -64q0 -48 -10.5 -89.5t-35.5 -112.5h-15q-19 -42 -41 -80.5t-50 -77.5t-59 -72.5t-68 -63.5t-77 -52t-87.5 -35.5t-96.5 -16.5q-18 -1 -36 -1q-189 0 -269 174q-58 126 -58 286q0 168 59 334.5t146 273.5q146 182 364 196
q15 1 30 1q220 0 305 -203l-238 -226q-34 57 -99 57h-7q-40 0 -77.5 -20.5t-65.5 -52.5t-52 -74.5t-39 -84t-26 -84.5q-17 -72 -17 -141q0 -83 28.5 -135.5t90.5 -52.5h9q96 9 181 139q-107 0 -181 22q-6 22 -6 46q0 19 4.5 41.5t8 36t12.5 39.5t11 33z" />
    <glyph glyph-name="h" unicode="h" horiz-adv-x="1040" 
d="M1013 460h-43q-37 -231 -54 -383l-357 -71q23 173 77 422q-89 -14 -193 -39q-42 -213 -57 -327l-350 -62q40 227 141.5 579t179.5 539q10 4 28 10q81 31 119 39t120 8q-65 -234 -127 -542q88 39 207 71q78 293 135 429q95 37 133.5 46.5t133.5 18.5q-45 -182 -90 -443
q13 0 39.5 4.5t42.5 4.5z" />
    <glyph glyph-name="i" unicode="i" horiz-adv-x="532" 
d="M36 0q36 241 122.5 594t156.5 533q96 38 139.5 48t137.5 14q-50 -207 -111 -549.5t-89 -568.5z" />
    <glyph glyph-name="j" unicode="j" horiz-adv-x="824" 
d="M619 894q-38 -3 -75 -3q-86 0 -164 19l48 220q140 0 250 25t292 105l-57 -296q-29 -11 -90 -30q11 -24 11 -47q0 -10 -2 -19q-48 -241 -149 -522t-326 -331q-65 -14 -118 -14q-73 0 -130 25.5t-109 78.5q36 113 139 293q26 -26 76 -43t104 -17q20 0 39 2q40 6 79 52
q16 19 30.5 40t28 50t23 48t22 58t18 55t18.5 63.5t16 58.5t17 64q6 15 9 65z" />
    <glyph glyph-name="k" unicode="k" horiz-adv-x="1086" 
d="M664 619q51 -62 100.5 -108t109.5 -85t114.5 -67.5t141.5 -69.5l-321 -289q-101 90 -199 216t-161 252q-45 -224 -63 -358l-350 -62q40 232 141 589.5t180 548.5q69 28 101.5 38t65 14t100.5 8q-53 -193 -110 -458q31 27 57 53t49.5 56.5t39.5 53.5t37 61t32 59t35 69
t36 71l351 -81q-108 -197 -209 -303.5t-278 -207.5z" />
    <glyph glyph-name="l" unicode="l" horiz-adv-x="838" 
d="M389 1175q9 3 26 10q79 30 116.5 38t116.5 8q-103 -389 -166 -761q-14 -68 -45 -119q153 30 350 30q26 0 52 -1l-90 -309q-273 -3 -405.5 -11.5t-307.5 -59.5l53 253l39 11q4 33 9.5 64.5t13.5 66.5t13 60t16 64.5t15.5 58.5t18 63.5t17 58t18.5 63t18 58.5
q66 217 122 354z" />
    <glyph glyph-name="m" unicode="m" horiz-adv-x="1410" 
d="M559 738q-10 -27 -59.5 -156.5t-76.5 -198t-69.5 -166t-74.5 -155.5q-65 -19 -183 -37.5t-192 -18.5q176 292 312.5 557.5t201.5 566.5l420 107q-41 -393 -41 -563q0 -12 -7 -78.5t-6 -79.5q15 53 38 129t42.5 140t39.5 131.5t36 128t26 104.5l410 97q-28 -251 -28 -437
q0 -142 16 -247q39 -244 81 -446q-122 -71 -363 -107q-20 2 -20 151q0 50 2 117q9 265 38 580q-3 -8 -31 -89t-38 -112t-35 -109.5t-36 -127.5t-26 -117t-19.5 -126.5t-2.5 -111.5q-31 -8 -88.5 -43t-85.5 -45q-61 -21 -179 -7q-6 1 -9.5 17.5t-6.5 60.5t-4 77t-3 109
q-1 44 -1 90q0 193 22 415z" />
    <glyph glyph-name="n" unicode="n" horiz-adv-x="1110" 
d="M36 15q36 240 122.5 593t156.5 533q91 37 134 46.5t143 19.5l12 -89q32 -247 71 -460q23 -128 51 -206q22 202 67.5 392.5t108.5 304.5q176 71 338 88q-7 -22 -20 -66q-50 -166 -77 -259t-66 -243.5t-64 -288t-40 -275.5l-275 -108l-103 142q-104 143 -138 244
q-11 45 -14 54q-36 -208 -48 -351z" />
    <glyph glyph-name="o" unicode="o" horiz-adv-x="921" 
d="M622 1263q13 1 26 1q118 0 202.5 -59t125 -158t40.5 -227q0 -65 -11 -133q-16 -92 -50 -185.5t-88 -182t-120.5 -157.5t-152.5 -113t-178 -49q-19 -1 -36 -1q-189 0 -269 174q-58 126 -58 286q0 168 58.5 334.5t145.5 273.5q147 182 365 196zM613 892q-41 0 -78.5 -20.5
t-65 -52.5t-51.5 -74.5t-39 -84t-26 -84.5q-18 -72 -18 -141q0 -83 29 -135.5t90 -52.5h10q35 3 68.5 21t60 46.5t50 63.5t41.5 75t31 79t23 78q14 69 14 122q0 160 -135 160h-4z" />
    <glyph glyph-name="p" unicode="p" horiz-adv-x="980" 
d="M273 871q-47 -8 -115 -23q-2 19 -2 38q0 38 8 79t17 68t29 85q348 112 534 112q20 0 38 -2q88 -6 173 -73t112 -144q19 -54 19 -117q0 -59 -17.5 -123t-42 -113t-54.5 -87q-63 -82 -143.5 -127.5t-195.5 -65.5q-69 -15 -141 -15q-30 0 -61 3q-27 -184 -36 -301l-359 -65
q26 170 78 385.5t109 402.5q12 45 50 83zM448 514q86 17 184.5 55t107.5 138q1 13 1 25q0 176 -206 176q-53 -181 -87 -394z" />
    <glyph glyph-name="q" unicode="q" horiz-adv-x="940" 
d="M125 -3q71 12 99 20q-189 134 -189 413q0 79 16 168q36 227 185.5 424.5t367.5 211.5q13 1 26 1q198 0 294 -166q71 -124 71 -291q0 -139 -46 -278.5t-116 -237.5q-116 -160 -277 -242q78 -15 158.5 -41t127.5 -56l-155 -253q-131 72 -254 148q-60 38 -150 38
q-97 0 -229 -43zM595 865q-49 -1 -93.5 -31.5t-76.5 -78.5t-54 -99.5t-36 -105.5q-17 -72 -17 -142q0 -39 6 -72t19 -59.5t35.5 -41.5t52.5 -15q7 0 15 1q42 4 81 28.5t68.5 60.5t54.5 83.5t42 93t28 92.5q15 70 15 123q0 163 -140 163z" />
    <glyph glyph-name="r" unicode="r" horiz-adv-x="1057" 
d="M36 20q26 170 78.5 385.5t109.5 403.5q11 42 49 83q-71 -18 -115 -24q-1 20 -1 38q0 30 3 56.5t12.5 60t16 53.5t22.5 65q1 1 40.5 12.5t48 14t47.5 13.5t54 15t52.5 13t58 13t54.5 10t58.5 8.5t54.5 5t56 2.5q160 0 245 -70q124 -103 124 -254q0 -51 -14 -110
q-18 -80 -55.5 -149t-91 -122t-118.5 -83q-93 -43 -192 -62q-6 0 -12 -3q83 -65 198 -98t183 -41q-9 -66 -67 -148t-163 -120q-79 45 -186 128t-166 193q-4 -32 -25 -220zM452 547q85 21 182.5 56.5t106.5 137.5v23q0 88 -53.5 126t-151.5 38q-55 -176 -84 -381z" />
    <glyph glyph-name="s" unicode="s" horiz-adv-x="866" 
d="M417 1211q43 15 73 23.5t66 14t72 5.5q80 0 196 -29q171 -43 171 -99q0 -6 -2 -11q-39 -151 -65 -251t-60 -166q-101 66 -172 119q-60 45 -125 45q-76 0 -127 -59q-15 -18 -15 -37q0 -35 53 -73q36 -27 109 -76q190 -129 190 -321q0 -14 -1 -29q-12 -131 -124 -199
t-242 -68h-8q-99 0 -205 49.5t-141 108.5l104 180q27 -23 49 -39.5t53.5 -36t65 -29.5t66.5 -10q9 0 19 1q77 5 77 74v14q-13 26 -46.5 54.5t-91.5 68t-69 47.5q-55 41 -100 92q-77 85 -77 200q0 134 100 279q70 101 207 158z" />
    <glyph glyph-name="t" unicode="t" horiz-adv-x="780" 
d="M931 1252q0 -28 -4.5 -60t-10.5 -61t-15 -64t-16.5 -60.5t-18 -59.5t-15.5 -53q-87 4 -155 4q-34 0 -63 -1q-21 -78 -38 -159.5t-30.5 -172.5t-22.5 -156.5t-22 -175t-21 -165.5l-357 -68q26 176 79 400t109 412q8 36 27 56l-113 -17q-57 -9 -119 -19q-7 27 -7 70
q0 14 1 30q3 64 42 174q28 8 79 21q140 37 212.5 54t199 37t279.5 34z" />
    <glyph glyph-name="u" unicode="u" horiz-adv-x="969" 
d="M289 1124q100 36 137 44t133 12q-138 -486 -193 -794q-2 -7 -2 -13q0 -52 108 -52h10q36 0 77 51q116 519 213 766q99 39 138 48.5t131 14.5q-33 -137 -72 -343.5t-71 -417t-47 -357.5l-360 -71q3 23 8 65q-154 -62 -262 -62q-23 0 -44 2q-119 12 -141 185
q-16 119 -16 176q0 26 3 39q74 304 250 707z" />
    <glyph glyph-name="v" unicode="v" horiz-adv-x="969" 
d="M434 309q65 238 154.5 467t191.5 402q31 9 78.5 18.5t99 17t104.5 12.5t92 5q-178 -292 -311 -557.5t-198 -563.5l-256 -56l-205 -54q27 248 27 434q0 144 -16 250q-37 244 -76 449q122 71 363 104q17 -4 17 -114q0 -62 -5 -157q-15 -265 -60 -657z" />
    <glyph glyph-name="w" unicode="w" horiz-adv-x="1458" 
d="M1002 508q5 14 32 87.5t39 105.5t38.5 101.5t44 112t41 97.5t44.5 98t41 76q64 19 181.5 36.5t193.5 17.5q-176 -292 -313 -556t-203 -565l-418 -110q38 367 38 589v50q-41 -96 -89 -258.5t-77 -287.5l-411 -102q27 248 27 434q0 144 -16 250q-37 244 -76 449
q122 71 363 104q17 -4 17 -145q0 -52 -2 -124q-9 -264 -43 -576q31 88 61.5 210t72 309.5t51.5 229.5q11 3 36 13q132 68 318 92q20 -6 28 -235q2 -51 2 -105q0 -185 -21 -398z" />
    <glyph glyph-name="x" unicode="x" horiz-adv-x="1128" 
d="M36 122q39 84 79.5 146t91.5 112t102.5 87.5t130.5 85.5q-87 151 -122 277.5t-35 321.5v37l356 51q-23 -113 -33 -181t-10 -131q0 -110 37 -247q131 99 169.5 259.5t91.5 287.5l346 -104q-113 -267 -205.5 -396.5t-267.5 -245.5q65 -86 131 -129.5t181 -69.5l-214 -283
q-119 39 -199 131.5t-124 222.5q-75 -71 -117 -139t-90 -186z" />
    <glyph glyph-name="y" unicode="y" horiz-adv-x="895" 
d="M309 443q-116 187 -157 330q-34 118 -34 290q0 37 1 75l357 93q-45 -214 -45 -339q0 -112 32 -259q140 113 171.5 259t82.5 312l342 -106q-108 -283 -201.5 -411t-262.5 -238q-7 -31 -28 -114.5t-33 -138.5t-20 -113q-111 -11 -188.5 -28.5t-167.5 -54.5q29 148 106 389
q12 31 45 54z" />
    <glyph glyph-name="z" unicode="z" horiz-adv-x="940" 
d="M770 42q-125 2 -177 2q-154 0 -301 -18v-3l-201 -23l-31 218q191 332 484 591q-175 -21 -416 -66l68 355q429 73 908 85l-108 -338q-48 0 -68 -3q25 -25 25 -48.5t-25 -44.5q-39 -36 -119.5 -109t-127.5 -116.5t-111 -109t-113 -125.5q65 11 101 16.5t93.5 13t108.5 11
t102 3.5z" />
    <glyph glyph-name="braceleft" unicode="{" 
d="M1082 363q-19 94 -27.5 140t-16 118.5t-7.5 141.5q0 106 16 239l-235 -57q-15 -71 -42 -162.5t-50 -146.5q-1 18 -1 40q0 130 24 320l-241 -59q-20 -91 -49.5 -173t-72.5 -166t-77 -142t-92 -153q28 0 70.5 4.5t82 11.5t61.5 14q17 26 34 63t34.5 81t31.5 81.5t31 86
t26 72.5q-12 -132 -12 -243q0 -23 1 -44q3 -129 19 -132q107 14 180 53q14 3 18 6q7 29 29 132t39.5 173t35.5 121q-18 -179 -22 -328q-1 -40 -1 -70q0 -79 8 -82q134 15 205 60zM250 184q-214 188 -214 477q0 258 184.5 442.5t445.5 184.5q259 0 443.5 -184.5t184.5 -442.5
q0 -262 -184.5 -447t-443.5 -185q-101 0 -206 33l-355 -158z" />
    <glyph glyph-name="bar" unicode="|" 
d="M1082 363q-19 94 -27.5 140t-16 118.5t-7.5 141.5q0 106 16 239l-235 -57q-15 -71 -42 -162.5t-50 -146.5q-1 18 -1 40q0 130 24 320l-241 -59q-20 -91 -49.5 -173t-72.5 -166t-77 -142t-92 -153q28 0 70.5 4.5t82 11.5t61.5 14q17 26 34 63t34.5 81t31.5 81.5t31 86
t26 72.5q-12 -132 -12 -243q0 -23 1 -44q3 -129 19 -132q107 14 180 53q14 3 18 6q7 29 29 132t39.5 173t35.5 121q-18 -179 -22 -328q-1 -40 -1 -70q0 -79 8 -82q134 15 205 60zM250 184q-214 188 -214 477q0 258 184.5 442.5t445.5 184.5q259 0 443.5 -184.5t184.5 -442.5
q0 -262 -184.5 -447t-443.5 -185q-101 0 -206 33l-355 -158z" />
    <glyph glyph-name="braceright" unicode="}" 
d="M1082 363q-19 94 -27.5 140t-16 118.5t-7.5 141.5q0 106 16 239l-235 -57q-15 -71 -42 -162.5t-50 -146.5q-1 18 -1 40q0 130 24 320l-241 -59q-20 -91 -49.5 -173t-72.5 -166t-77 -142t-92 -153q28 0 70.5 4.5t82 11.5t61.5 14q17 26 34 63t34.5 81t31.5 81.5t31 86
t26 72.5q-12 -132 -12 -243q0 -23 1 -44q3 -129 19 -132q107 14 180 53q14 3 18 6q7 29 29 132t39.5 173t35.5 121q-18 -179 -22 -328q-1 -40 -1 -70q0 -79 8 -82q134 15 205 60zM250 184q-214 188 -214 477q0 258 184.5 442.5t445.5 184.5q259 0 443.5 -184.5t184.5 -442.5
q0 -262 -184.5 -447t-443.5 -185q-101 0 -206 33l-355 -158z" />
    <glyph glyph-name="asciitilde" unicode="~" 
d="M1082 363q-19 94 -27.5 140t-16 118.5t-7.5 141.5q0 106 16 239l-235 -57q-15 -71 -42 -162.5t-50 -146.5q-1 18 -1 40q0 130 24 320l-241 -59q-20 -91 -49.5 -173t-72.5 -166t-77 -142t-92 -153q28 0 70.5 4.5t82 11.5t61.5 14q17 26 34 63t34.5 81t31.5 81.5t31 86
t26 72.5q-12 -132 -12 -243q0 -23 1 -44q3 -129 19 -132q107 14 180 53q14 3 18 6q7 29 29 132t39.5 173t35.5 121q-18 -179 -22 -328q-1 -40 -1 -70q0 -79 8 -82q134 15 205 60zM250 184q-214 188 -214 477q0 258 184.5 442.5t445.5 184.5q259 0 443.5 -184.5t184.5 -442.5
q0 -262 -184.5 -447t-443.5 -185q-101 0 -206 33l-355 -158z" />
    <glyph glyph-name="acute" unicode="&#xb4;" horiz-adv-x="607" 
d="M327 1382l383 111l-32 -148q-36 -160 -76.5 -249.5t-126.5 -180.5l-89 -95l-210 88l39 82q41 83 74 148q26 63 29 109z" />
    <glyph glyph-name="Agrave" unicode="&#xc0;" horiz-adv-x="1026" 
d="M645 1983l58 -81q29 -40 50 -67.5t45 -53.5t47.5 -48.5t59.5 -53.5l61 -53l-58 -74l-77 36q-105 51 -185 99.5t-144 108.5l-77 74zM999 258q18 -123 42 -225q-139 -85 -408 -124q-22 6 -22 186q0 53 2 123q-96 -21 -147 -31q-4 -1 -7 -1q-28 0 -28 64v6
q-65 -169 -125 -276q-72 -22 -206 -44t-216 -22q196 355 339 678.5t220 689.5l295 65l228 66q-29 -287 -29 -509q0 -189 20 -374q57 5 144 17l-90 -289h-12zM485 411q59 23 134 43q11 284 45 619q-4 -15 -16.5 -66.5t-17 -69.5t-16 -65.5t-17.5 -70t-17 -65.5t-18 -68.5
t-18 -64t-19.5 -67t-19 -62t-20.5 -63.5z" />
    <glyph glyph-name="Aacute" unicode="&#xc1;" horiz-adv-x="1060" 
d="M908 1950l204 -109l-84 -77q-118 -105 -353 -207l-77 -34l-51 71l66 54q50 41 74 61.5t58 54t59 66.5zM1032 258q18 -123 42 -225q-139 -85 -408 -124q-22 6 -22 186q0 53 2 123q-96 -21 -147 -31q-3 -1 -7 -1q-27 0 -27 64v6q-66 -169 -125 -276q-73 -22 -207 -44
t-216 -22q196 355 339 678.5t220 689.5l295 65l228 66q-29 -287 -29 -509q0 -189 20 -374q57 5 144 17l-90 -289h-12zM518 411q60 23 134 43q12 284 45 619q-2 -9 -17.5 -73t-19.5 -79t-18 -71.5t-19.5 -78.5t-18.5 -71t-21 -77.5t-20 -69t-22.5 -75t-22.5 -67.5z" />
    <glyph glyph-name="Acircumflex" unicode="&#xc2;" horiz-adv-x="1045" 
d="M454 1654l75 19q34 9 69 31t63.5 50.5t51.5 60.5t38 64l27 62l176 63l-9 -96q-2 -24 -2 -50q0 -69 14.5 -129.5t40.5 -84.5l21 -24l-167 -82q-26 52 -26 151q0 24 2 49l4 64l-33 -60q-35 -61 -73.5 -100.5t-96.5 -66.5l-61 -26zM1016 258q19 -123 43 -225
q-140 -85 -409 -124q-22 6 -22 186q0 53 2 123q-96 -21 -146 -31q-4 -1 -7 -1q-28 0 -28 64v6q-66 -169 -125 -276q-73 -22 -207 -44t-216 -22q196 355 339 678.5t220 689.5l295 65l228 66q-29 -287 -29 -509q0 -189 20 -374q57 5 144 17l-90 -289h-12zM502 411
q60 23 134 43q12 284 45 619q-2 -9 -17.5 -73t-19.5 -79t-18 -71.5t-19.5 -78.5t-18.5 -71t-21 -77.5t-20 -69t-22.5 -75t-22.5 -67.5z" />
    <glyph glyph-name="Atilde" unicode="&#xc3;" horiz-adv-x="1042" 
d="M417 1708q145 85 213 85q20 0 34 -7q59 -32 164 -92q18 -12 46 -12q97 0 305 159l-39 -187q-167 -104 -277 -104q-114 0 -218 114q-20 22 -54 22q-75 0 -218 -108zM1015 258q18 -123 42 -225q-139 -85 -408 -124q-22 6 -22 186q0 53 2 123q-96 -21 -147 -31q-4 -1 -7 -1
q-28 0 -28 64v6q-65 -169 -125 -276q-72 -22 -206 -44t-216 -22q196 355 339 678.5t220 689.5l295 65l228 66q-29 -287 -29 -509q0 -189 20 -374q57 5 144 17l-90 -289h-12zM501 411q59 23 134 43q11 284 45 619q-3 -9 -18.5 -73t-19 -79t-17.5 -71.5t-20 -78.5t-18.5 -71
t-21 -77.5t-20 -69t-22.5 -75t-22 -67.5z" />
    <glyph glyph-name="Adieresis" unicode="&#xc4;" horiz-adv-x="1038" 
d="M571 1787q6 1 12 1q81 0 81 -94q0 -22 -5 -49q-23 -154 -136 -167q-10 -1 -19 -1q-75 0 -75 88q0 23 5 53q23 155 137 169zM942 1830h12q81 0 81 -93q0 -22 -4 -48q-23 -154 -137 -166q-10 -1 -19 -1q-74 0 -74 88q0 23 5 53q23 155 136 167zM1011 258q18 -123 42 -225
q-140 -85 -408 -124q-23 6 -23 186q0 53 2 123q-95 -21 -146 -31q-4 -1 -7 -1q-28 0 -28 64v6q-65 -169 -125 -276q-72 -22 -206.5 -44t-216.5 -22q196 355 339.5 678.5t219.5 689.5l295 65l228 66q-28 -287 -28 -509q0 -189 19 -374q57 5 144 17l-90 -289h-11zM497 411
q59 23 133 43q12 284 45 619q-2 -9 -17.5 -73t-19.5 -79t-18 -71.5t-19.5 -78.5t-18.5 -71t-21 -77.5t-19.5 -69t-22.5 -75t-22 -67.5z" />
    <glyph glyph-name="Aring" unicode="&#xc5;" horiz-adv-x="1026" 
d="M999 258q18 -123 42 -225q-139 -85 -408 -124q-22 6 -22 186q0 53 2 123q-96 -21 -147 -31q-4 -1 -7 -1q-28 0 -28 64v6q-65 -169 -125 -276q-72 -22 -206 -44t-216 -22q196 355 339 678.5t220 689.5l295 65l228 66q-29 -287 -29 -509q0 -189 20 -374q57 5 144 17
l-90 -289h-12zM590 1933q35 44 89.5 71.5t109.5 27.5q92 0 140 -75q37 -58 37 -138q0 -55 -16.5 -114.5t-41.5 -107.5t-54 -83q-82 -101 -185 -107q-8 -1 -16 -1q-81 0 -122.5 64t-41.5 162q0 41 8 84q20 128 93 217zM764 1847q-92 0 -128 -155q-8 -36 -8 -69
q0 -41 14 -67.5t43 -26.5h5q98 12 136 179q6 31 6 56q0 83 -68 83zM485 411q59 23 134 43q11 284 45 619q-4 -15 -16.5 -66.5t-17 -69.5t-16 -65.5t-17.5 -70t-17 -65.5t-18 -68.5t-18 -64t-19.5 -67t-19 -62t-20.5 -63.5z" />
    <glyph glyph-name="AE" unicode="&#xc6;" horiz-adv-x="1626" 
d="M806 931q-65 -9 -102 -15q-18 -49 -54 -155t-56 -160q19 6 59 15t57 14q42 153 96 301zM650 380q-53 -8 -159 -32q-77 -166 -204 -348q-69 -22 -186.5 -42.5t-197.5 -20.5q-9 0 -16 1q190 345 353.5 639t231.5 699l530 44q257 24 788 54l-107 -369q-201 -6 -556 -38
q-41 -181 -60 -295q185 66 449 105l-77 -289h-16q-173 0 -388 -60q-18 -121 -22 -142q95 19 146 28t134.5 23t157 21.5t146.5 10.5l-101 -349q-52 1 -98 1q-235 0 -405 -14.5t-419 -51.5q29 199 76 425z" />
    <glyph glyph-name="Ccedilla" unicode="&#xc7;" horiz-adv-x="1026" 
d="M190 -437l82 90q63 70 99 126.5t63 129.5q-241 8 -336 227q-62 142 -62 316q0 93 18 196q19 113 58 217.5t100 198.5t138 165t178.5 116t214.5 53q20 1 39 1q272 0 378 -236l-292 -271q-48 68 -136 69q-49 -1 -95 -24.5t-81 -60.5t-64.5 -85.5t-49 -98t-31.5 -100.5
q-22 -89 -22 -171q0 -62 13 -109t45.5 -77.5t81.5 -30.5q9 0 18 1q43 3 90 26t84 54t65 66l116 -209q-72 -92 -144.5 -142.5t-178.5 -73.5q-27 -124 -68 -218t-107 -183l-83 -107z" />
    <glyph glyph-name="Egrave" unicode="&#xc8;" horiz-adv-x="1086" 
d="M261 883q-23 -3 -100 -18l68 381q265 50 505.5 78t522.5 41l-106 -369q-246 -9 -559 -54q-23 -104 -47 -238q174 62 437 102l-74 -292q-194 0 -403 -57q-3 -28 -9.5 -88t-10.5 -93q16 3 89 17.5t99.5 19.5t90.5 16t103.5 16t94 9.5t102.5 5.5l-97 -345q-296 0 -482 -14
t-440 -55q74 529 216 937zM761 1950l58 -81q56 -79 95 -121.5t107 -100.5l61 -53l-58 -71l-77 34q-211 97 -328 210l-77 74z" />
    <glyph glyph-name="Eacute" unicode="&#xc9;" horiz-adv-x="1086" 
d="M261 883q-23 -3 -100 -18l68 381q265 50 505.5 78t522.5 41l-106 -369q-246 -9 -559 -54q-23 -104 -47 -238q174 62 437 102l-74 -292q-194 0 -403 -57q-3 -28 -9.5 -88t-10.5 -93q16 3 89 17.5t99.5 19.5t90.5 16t103.5 16t94 9.5t102.5 5.5l-97 -345q-296 0 -482 -14
t-440 -55q74 529 216 937zM990 1950l205 -109l-84 -77q-118 -105 -353 -207l-77 -34l-51 71l66 54l73.5 61.5t58 54t59.5 66.5z" />
    <glyph glyph-name="Ecircumflex" unicode="&#xca;" horiz-adv-x="1113" 
d="M463 1638l77 20q69 17 130.5 78t91.5 128l29 63l176 62l-10 -96q-2 -22 -2 -46q0 -69 14.5 -131t39.5 -87l23 -20l-167 -86q-29 59 -29 146q0 27 3 56l6 65l-33 -59q-36 -64 -74 -103.5t-98 -66.5l-61 -26zM261 883q-23 -3 -100 -18l68 381q265 50 505.5 78t522.5 41
l-106 -369q-246 -9 -559 -54q-23 -104 -47 -238q174 62 437 102l-74 -292q-194 0 -403 -57q-3 -28 -9.5 -88t-10.5 -93q16 3 89 17.5t99.5 19.5t90.5 16t103.5 16t94 9.5t102.5 5.5l-97 -345q-296 0 -482 -14t-440 -55q74 529 216 937z" />
    <glyph glyph-name="Edieresis" unicode="&#xcb;" horiz-adv-x="1086" 
d="M261 883q-23 -3 -100 -18l68 381q265 50 505.5 78t522.5 41l-106 -369q-246 -9 -559 -54q-23 -104 -47 -238q174 62 437 102l-74 -292q-194 0 -403 -57q-3 -28 -9.5 -88t-10.5 -93q16 3 89 17.5t99.5 19.5t90.5 16t103.5 16t94 9.5t102.5 5.5l-97 -345q-296 0 -482 -14
t-440 -55q74 529 216 937zM616 1773h11q82 0 82 -94q0 -23 -5 -50q-23 -154 -136 -165q-10 -2 -19 -2q-75 0 -75 88q0 23 5 53q23 155 137 170zM990 1814h12q81 0 81 -92q0 -21 -4 -48q-23 -154 -137 -167q-10 -1 -18 -1q-76 0 -76 89q0 23 6 53q23 154 136 166z" />
    <glyph glyph-name="Igrave" unicode="&#xcc;" horiz-adv-x="607" 
d="M470 1950l59 -81q58 -82 96 -124t105 -98l61 -53l-59 -71l-76 34q-213 98 -329 210l-77 74zM36 -42q42 281 144 695t186 629q111 45 160 56.5t164 20.5q-61 -248 -131.5 -649.5t-101.5 -670.5z" />
    <glyph glyph-name="Iacute" unicode="&#xcd;" horiz-adv-x="607" 
d="M755 1950l209 -109l-86 -77q-117 -105 -352 -207l-77 -34l-51 71l65 54q48 39 74 61.5t59 55t60 65.5zM36 -42q42 281 144 695t186 629q111 45 160 56.5t164 20.5q-61 -248 -131.5 -649.5t-101.5 -670.5z" />
    <glyph glyph-name="Icircumflex" unicode="&#xce;" horiz-adv-x="620" 
d="M36 -42q42 281 144 695t186 629q60 24 92.5 36t70.5 20.5t68 12t93 8.5q-61 -248 -131.5 -649.5t-101.5 -670.5zM276 1638l77 20q46 12 92 46t78.5 75.5t51.5 84.5l29 63l173 62l-10 -96q-2 -22 -2 -46q0 -69 14.5 -131t39.5 -87l23 -20l-164 -86q-30 61 -30 160
q0 21 1 42l6 65l-34 -59q-35 -64 -73.5 -103.5t-97.5 -66.5l-61 -26z" />
    <glyph glyph-name="Idieresis" unicode="&#xcf;" horiz-adv-x="607" 
d="M414 1787q6 1 12 1q81 0 81 -94q0 -22 -5 -49q-23 -154 -136 -167q-10 -1 -19 -1q-76 0 -76 90q0 22 5 51q25 155 138 169zM786 1830h12q81 0 81 -93q0 -22 -5 -48q-23 -154 -133 -166q-10 -1 -19 -1q-78 0 -78 94q0 21 4 47q24 155 138 167zM36 -42q42 281 144 695
t186 629q111 45 160 56.5t164 20.5q-61 -248 -131.5 -649.5t-101.5 -670.5z" />
    <glyph glyph-name="Ntilde" unicode="&#xd1;" horiz-adv-x="1287" 
d="M36 -45q42 281 144 695t186 629q111 45 160 56.5t164 20.5l13 -106q27 -221 85 -544q27 -150 57 -238q29 243 81 463t127 354q110 46 205.5 72.5t194.5 30.5q-64 -202 -99.5 -321.5t-84.5 -303t-81.5 -355.5t-52.5 -348l-320 -128l-122 167q-78 106 -115.5 180t-63.5 173
q-39 -244 -57 -413zM559 1677q148 87 217 87q18 0 31 -6q61 -30 163 -90q19 -12 47 -12q98 0 306 155l-41 -188q-163 -101 -271 -101q-61 0 -114 28.5t-107 87.5q-20 21 -53 21q-76 0 -223 -110z" />
    <glyph glyph-name="Ograve" unicode="&#xd2;" horiz-adv-x="1040" 
d="M761 1950l58 -81q56 -79 95 -121.5t107 -100.5l61 -53l-58 -71l-77 34q-211 97 -328 210l-77 74zM704 1398q20 1 40 1q104 0 185.5 -40.5t133.5 -112t79 -166.5t27 -207q0 -74 -12 -153q-18 -109 -58.5 -219.5t-104.5 -213.5t-142.5 -184t-179.5 -133.5t-208 -61.5
q-22 -2 -42 -2q-220 0 -315 205q-71 154 -71 347q0 89 15 187q15 92 43.5 179.5t69.5 170t96.5 152.5t121.5 124t149 87t173 40zM693 961q-40 -1 -76.5 -18t-66.5 -46t-55.5 -65t-45.5 -78t-34.5 -83t-24.5 -82q-21 -87 -21 -170q0 -62 12 -109t43 -78t79 -31q8 0 17 1
q42 3 81 23.5t70 54t58.5 74t48.5 87.5t36 92.5t25 90.5q19 86 19 149q0 188 -162 188h-3z" />
    <glyph glyph-name="Oacute" unicode="&#xd3;" horiz-adv-x="1040" 
d="M990 1950l205 -109l-84 -77q-118 -105 -353 -207l-77 -34l-51 71l66 54l73.5 61.5t58 54t59.5 66.5zM704 1398q20 1 40 1q104 0 185.5 -40.5t133.5 -112t79 -166.5t27 -207q0 -74 -12 -153q-18 -109 -58.5 -219.5t-104.5 -213.5t-142.5 -184t-179.5 -133.5t-208 -61.5
q-22 -2 -42 -2q-220 0 -315 205q-71 154 -71 347q0 89 15 187q18 111 54.5 214.5t94 198.5t130.5 167.5t169.5 118.5t204.5 54zM693 961q-47 -1 -90.5 -25.5t-76 -62t-60.5 -87.5t-46 -98.5t-30 -98.5q-21 -87 -21 -170q0 -62 12 -109t43 -78t79 -31q8 0 17 1q50 4 95.5 33
t80 72t64 98.5t48.5 109.5t31 109q19 86 19 149q0 188 -162 188h-3z" />
    <glyph glyph-name="Ocircumflex" unicode="&#xd4;" horiz-adv-x="1040" 
d="M494 1638l75 20q47 12 92.5 46t78.5 75.5t53 84.5l27 63l173 62l-7 -96q-2 -23 -2 -49q0 -45 5.5 -86.5t17.5 -77t30 -51.5l22 -20l-165 -86q-29 58 -29 157q0 22 2 45l4 65l-32 -59q-35 -64 -73 -103.5t-97 -66.5l-59 -26zM704 1398q20 1 40 1q104 0 185.5 -40.5
t133.5 -112t79 -166.5t27 -207q0 -75 -12 -153q-18 -109 -58.5 -219.5t-104.5 -213.5t-142.5 -184t-179.5 -133.5t-208 -61.5q-22 -2 -42 -2q-220 0 -315 205q-71 154 -71 347q0 89 15 187q15 92 43.5 179.5t69.5 170t96.5 152.5t121.5 124t149 87t173 40zM693 961
q-47 -1 -90.5 -25.5t-76 -62t-60.5 -87.5t-46 -98.5t-30 -98.5q-21 -87 -21 -170q0 -62 12 -109t43 -78t79 -31q8 0 17 1q50 4 95.5 33t80 72t64 98.5t48.5 109.5t31 109q19 86 19 149q0 188 -162 188h-3z" />
    <glyph glyph-name="Otilde" unicode="&#xd5;" horiz-adv-x="1040" 
d="M517 1708q145 85 214 85q19 0 33 -7q59 -32 164 -92q18 -12 46 -12q97 0 305 159l-39 -187q-167 -104 -277 -104q-114 0 -218 114q-20 22 -53 22q-75 0 -219 -108zM704 1398q20 2 38 2q105 0 187 -40.5t134 -112t79 -167t27 -207.5q0 -74 -12 -153q-18 -110 -58.5 -220
t-104.5 -213t-142.5 -184t-179.5 -133.5t-209 -60.5q-21 -2 -41 -2q-220 0 -315 205q-71 153 -71 346q0 89 15 187q18 110 54.5 214t94 199.5t130.5 167.5t169.5 118.5t204.5 53.5zM693 961q-47 -1 -90.5 -25.5t-76 -62t-60.5 -87.5t-46.5 -98.5t-30.5 -97.5
q-21 -87 -21 -170q0 -62 12.5 -109t43.5 -78.5t79 -31.5q8 0 17 1q50 4 95.5 33t80 72t64 98.5t48.5 109.5t31 109q19 86 19 149q0 188 -162 188h-3z" />
    <glyph glyph-name="Odieresis" unicode="&#xd6;" horiz-adv-x="1040" 
d="M601 1799q6 1 12 1q81 0 81 -92q0 -22 -4 -48q-24 -154 -134 -167q-10 -2 -19 -2q-78 0 -78 94q0 21 4 47q25 153 138 167zM976 1844q6 1 12 1q81 0 81 -92q0 -22 -5 -48q-23 -154 -136 -167q-10 -2 -19 -2q-75 0 -75 88q0 24 5 53q23 155 137 167zM704 1398q20 2 38 2
q105 0 187 -40.5t134 -112t79 -167t27 -207.5q0 -74 -12 -153q-18 -110 -58.5 -220t-104.5 -213t-142.5 -184t-179.5 -133.5t-209 -60.5q-21 -2 -41 -2q-220 0 -315 205q-71 153 -71 346q0 89 15 187q18 110 54.5 214t94 199.5t130.5 167.5t169.5 118.5t204.5 53.5zM693 961
q-47 -1 -90.5 -25.5t-76 -62t-60.5 -87.5t-46.5 -98.5t-30.5 -97.5q-21 -87 -21 -170q0 -62 12.5 -109t43.5 -78.5t79 -31.5q8 0 17 1q50 4 95.5 33t80 72t64 98.5t48.5 109.5t31 109q19 86 19 149q0 188 -162 188h-3z" />
    <glyph glyph-name="Oslash" unicode="&#xd8;" horiz-adv-x="1040" 
d="M704 1404q12 1 23 1q62 0 121 -14q17 74 26 118l9 43l226 57l-30 -80q-29 -80 -80 -212q172 -142 172 -421q0 -80 -14 -170q-18 -110 -58.5 -220t-104.5 -213t-142.5 -184t-179.5 -133.5t-209 -61.5q-17 -1 -34 -1q-58 0 -111 16q-62 -83 -97 -128l-37 -45l-98 39l37 51
q38 51 98 134q-90 64 -138 192t-48 291q0 93 16 189q18 111 54.5 214.5t94 198.5t130.5 167.5t169.5 118.5t204.5 53zM499 208h21q50 4 95.5 33t80 71.5t64 98.5t48.5 110t31 109q15 76 15 135q0 77 -25 127q-26 -57 -77 -177t-77 -176q-77 -164 -176 -331zM408 264
q125 207 177 355q25 51 47 104.5t52.5 133.5t41.5 107q-9 0 -33 3q-47 -1 -90.5 -25.5t-76 -62.5t-60.5 -87.5t-46.5 -98t-30.5 -98.5q-21 -94 -21 -167q0 -101 40 -164z" />
    <glyph glyph-name="Ugrave" unicode="&#xd9;" horiz-adv-x="1113" 
d="M761 1950l58 -81q56 -79 95 -121.5t107 -100.5l61 -53l-58 -71l-77 34q-211 97 -328 210l-77 74zM338 1276q116 43 164.5 53.5t161.5 15.5q-158 -566 -233 -956q-1 -9 -1 -17q0 -15 4.5 -26t15 -17.5t20.5 -11t28.5 -6t31 -2t34.5 -0.5h7q42 0 93 66q55 248 123.5 498.5
t134.5 420.5q111 44 159 55.5t159 21.5q-56 -236 -122 -638t-104 -710l-432 -83q3 27 13 77q-193 -73 -325 -73q-22 0 -43 2q-140 15 -170 222q-20 135 -20 204q0 36 5 53q52 212 124 411t172 440z" />
    <glyph glyph-name="Uacute" unicode="&#xda;" horiz-adv-x="1113" 
d="M990 1950l205 -109l-84 -77q-118 -105 -353 -207l-77 -34l-51 71l66 54l73.5 61.5t58 54t59.5 66.5zM338 1276q116 43 164.5 53.5t161.5 15.5q-158 -566 -233 -956q-1 -9 -1 -17q0 -15 4.5 -26t15 -17.5t20.5 -11t28.5 -6t31 -2t34.5 -0.5h7q42 0 93 66
q55 248 123.5 498.5t134.5 420.5q111 44 159 55.5t159 21.5q-56 -236 -122 -638t-105 -710l-431 -83q3 27 13 77q-193 -73 -325 -73q-22 0 -43 2q-140 15 -170 222q-20 135 -20 204q0 36 5 53q37 148 90 308t97.5 274t108.5 269z" />
    <glyph glyph-name="Ucircumflex" unicode="&#xdb;" horiz-adv-x="1113" 
d="M539 1638l74 20q46 12 91.5 46.5t78 75.5t52.5 84l30 63l173 62l-9 -96q-2 -23 -2 -49q0 -44 6 -86t18 -77t29 -52l24 -20l-167 -86q-27 61 -27 157q0 22 2 45l4 65l-33 -59q-36 -64 -74 -103.5t-98 -66.5l-59 -26zM338 1276q64 24 94.5 34.5t68.5 18.5t69.5 10.5
t93.5 5.5q-158 -566 -233 -956q-1 -9 -1 -17q0 -15 4.5 -26t15 -17.5t20.5 -11t28.5 -6t31 -2t34.5 -0.5h7q42 0 93 66q55 248 123.5 498.5t134.5 420.5q111 44 159 55.5t159 21.5q-56 -236 -122 -638t-104 -710l-432 -83q3 27 13 77q-193 -73 -325 -73q-22 0 -43 2
q-140 15 -170 222q-20 135 -20 204q0 36 5 53q37 148 90 308t97.5 274t108.5 269z" />
    <glyph glyph-name="Udieresis" unicode="&#xdc;" horiz-adv-x="1113" 
d="M661 1787q6 1 12 1q81 0 81 -94q0 -22 -5 -49q-23 -154 -136 -167q-10 -1 -19 -1q-76 0 -76 90q0 22 5 51q24 155 138 169zM1032 1830h12q81 0 81 -93q0 -22 -4 -48q-23 -154 -134 -166q-10 -1 -19 -1q-77 0 -77 94q0 21 3 47q25 155 138 167zM338 1276
q116 43 164.5 53.5t161.5 15.5q-158 -566 -233 -956q-1 -9 -1 -17q0 -15 4.5 -26t15 -17.5t20.5 -11t28.5 -6t31 -2t34.5 -0.5h7q42 0 93 66q55 248 123.5 498.5t134.5 420.5q111 44 159 55.5t159 21.5q-56 -236 -122 -638t-105 -710l-431 -83q3 27 13 77q-193 -73 -325 -73
q-22 0 -43 2q-140 15 -170 222q-20 135 -20 204q0 36 5 53q52 212 124 411t172 440z" />
    <glyph glyph-name="germandbls" unicode="&#xdf;" horiz-adv-x="1724" 
d="M417 1211q43 15 73 23.5t66 14t72 5.5q80 0 196 -29q171 -43 171 -99q0 -6 -2 -11q-39 -151 -65 -251t-60 -166q-101 66 -172 119q-60 45 -125 45q-76 0 -127 -59q-15 -18 -15 -37q0 -35 53 -73q36 -27 109 -76q190 -129 190 -321q0 -14 -1 -29q-12 -131 -124 -199
t-242 -68h-8q-99 0 -205 49.5t-141 108.5l104 180q27 -23 49 -39.5t53.5 -36t65 -29.5t66.5 -10q9 0 19 1q77 5 77 74v14q-13 26 -46.5 54.5t-91.5 68t-69 47.5q-55 41 -100 92q-77 85 -77 200q0 134 100 279q70 101 207 158zM1285 1211q43 15 73 23.5t66 14t72 5.5
q81 0 196 -29q171 -43 171 -99q0 -6 -2 -11q-39 -151 -65 -251t-59 -166q-102 66 -173 119q-59 45 -126 45q-78 0 -127 -59q-14 -17 -14 -36q0 -35 53 -74q7 -5 38 -27t51 -36.5t48.5 -36t49 -40t33.5 -33.5q79 -97 79 -223q0 -15 -1 -30q-12 -131 -123.5 -199t-242.5 -68
h-8q-98 0 -203.5 49.5t-142.5 108.5l104 180q28 -23 49.5 -39.5t53 -36t65 -29.5t66.5 -10q10 0 19 1q78 5 78 74q0 7 -1 14q-12 26 -45.5 54.5t-92 68t-69.5 47.5q-54 41 -99 92q-78 85 -78 200q0 134 100 279q71 101 207 158z" />
    <glyph glyph-name="agrave" unicode="&#xe0;" horiz-adv-x="916" 
d="M497 1719l47 -70q33 -45 58 -75t48.5 -52t66.5 -60l53 -46l-54 -60l-64 28q-74 32 -148 78.5t-129 98.5l-66 62zM849 303q7 -37 22.5 -110t17.5 -83q-117 -74 -346 -110q-21 5 -21 179q0 38 1 85q-19 -4 -61 -11.5t-61 -11.5h-5q-25 0 -29 60q-46 -131 -103 -239
q-60 -18 -175.5 -37t-184.5 -19q167 300 289 577t185 586l252 59l196 54q-26 -248 -26 -437q0 -158 17 -315q59 6 120 17l-76 -244h-12zM412 431q63 23 117 37q8 226 39 525q-94 -384 -156 -562z" />
    <glyph glyph-name="aacute" unicode="&#xe1;" horiz-adv-x="921" 
d="M710 1719l176 -96l-73 -62q-112 -97 -298 -177l-66 -28l-45 60l56 46q109 89 164 153zM855 303q7 -37 22 -110t17 -83q-116 -74 -345 -110q-22 5 -22 179q0 38 2 85q-20 -4 -61.5 -11.5t-60.5 -11.5h-5q-25 0 -29 60q-46 -131 -103 -239q-60 -18 -175.5 -37t-184.5 -19
q167 300 289 577t184 586l253 59l196 54q-26 -248 -26 -437q0 -158 17 -315q58 6 119 17l-75 -244h-12zM418 431q63 23 116 37q9 226 40 525q-95 -384 -156 -562z" />
    <glyph glyph-name="acircumflex" unicode="&#xe2;" horiz-adv-x="925" 
d="M373 1453l64 18q40 10 79.5 39t68 64.5t45.5 72.5l23 50l149 54l-9 -81q-2 -21 -2 -44q0 -56 12.5 -106.5t34.5 -73.5l17 -19l-139 -71q-24 47 -24 129q0 21 2 43l4 55l-29 -51q-29 -53 -63 -88t-83 -57l-51 -22zM858 303q7 -37 22 -110t17 -83q-116 -74 -345 -110
q-22 5 -22 179q0 38 1 85q-15 -3 -38 -7t-45.5 -8.5t-38.5 -7.5h-4q-25 0 -29 60q-46 -131 -103 -239q-60 -18 -175.5 -37t-184.5 -19q167 300 289 577t184 586l253 59l196 54q-26 -248 -26 -437q0 -158 17 -315q58 6 119 17l-75 -244h-12zM421 431q63 23 116 37
q9 226 39 525q-94 -384 -155 -562z" />
    <glyph glyph-name="atilde" unicode="&#xe3;" horiz-adv-x="882" 
d="M421 431q63 23 116 37q9 226 39 525q-94 -384 -155 -562zM327 1481q122 74 180 74q17 0 28 -6q50 -29 136 -80q16 -9 38 -9q86 0 262 134l-32 -161q-138 -89 -231 -89q-97 0 -187 99q-17 19 -46 19q-65 0 -190 -94zM858 303q7 -37 22 -110t17 -83q-116 -74 -345 -110
q-22 5 -22 179q0 38 1 85q-15 -3 -38 -7t-45.5 -8.5t-38.5 -7.5h-4q-25 0 -29 60q-46 -131 -103 -239q-60 -18 -175.5 -37t-184.5 -19q167 300 289 577t184 586l253 59l196 54q-26 -248 -26 -437q0 -158 17 -315q58 6 119 17l-75 -244h-12z" />
    <glyph glyph-name="adieresis" unicode="&#xe4;" horiz-adv-x="865" 
d="M841 303q6 -37 21.5 -110t17.5 -83q-116 -74 -346 -110q-21 5 -21 179q0 38 1 85q-13 -2 -30 -5.5t-31 -6t-31 -5.5t-30 -6h-5q-24 0 -28 60q-47 -131 -103 -239q-61 -18 -176 -37t-185 -19q167 300 289 577t185 586l252 59l196 54q-26 -248 -26 -437q0 -158 18 -315
q58 6 119 17l-76 -244h-11zM781 1638h4q75 0 75 -82q0 -18 -3 -40q-18 -131 -116 -140h-12q-68 0 -68 78q0 20 4 44q20 134 116 140zM463 1612h8q72 0 72 -84q0 -17 -3 -38q-20 -128 -115 -137h-8q-73 0 -73 82q0 18 3 40q17 131 116 137zM404 431q62 23 116 37
q9 226 39 525q-94 -384 -155 -562z" />
    <glyph glyph-name="aring" unicode="&#xe5;" horiz-adv-x="874" 
d="M412 431q63 23 117 37q8 226 39 525q-94 -384 -156 -562zM521 1715q30 36 74.5 58.5t90.5 22.5q78 0 121 -64q34 -50 34 -120q0 -45 -14 -94.5t-34.5 -89t-45.5 -69.5q-34 -41 -83 -68.5t-95 -27.5q-75 0 -110 75q-24 51 -24 118q0 71 25 142.5t61 116.5zM668 1641
q-77 -3 -106 -134q-6 -32 -6 -61q0 -76 44 -76q4 0 8 1q83 5 114 152q5 27 5 48q0 70 -59 70zM849 303q5 -28 12 -61.5t15 -71.5t13 -60q-117 -74 -346 -110q-21 5 -21 179q0 38 1 85q-19 -4 -61 -11.5t-61 -11.5h-5q-25 0 -29 60q-46 -131 -103 -239q-60 -18 -175.5 -37
t-184.5 -19q167 300 289 577t185 586l252 59l196 54q-26 -248 -26 -437q0 -158 17 -315q59 6 120 17l-76 -244h-12z" />
    <glyph glyph-name="ae" unicode="&#xe6;" horiz-adv-x="1416" 
d="M698 842q-59 -9 -87 -16q-11 -32 -24.5 -70t-23.5 -67.5t-23 -66.5t-23 -66q39 12 100 26q39 147 81 260zM568 369q-75 -12 -141 -31q-71 -148 -171 -299q-60 -18 -167 -34.5t-179 -16.5q164 298 303.5 549t198.5 598l452 40q304 28 678 45l-91 -315q-185 -6 -480 -34
q-29 -133 -48 -252q154 56 385 88l-65 -250q-8 1 -16 1q-143 0 -333 -50q-1 -19 -6.5 -61t-7.5 -61q90 19 125 25.5t110.5 19.5t136.5 19t124 7l-87 -297q-252 0 -409 -12.5t-381 -47.5q30 205 69 369z" />
    <glyph glyph-name="ccedilla" unicode="&#xe7;" horiz-adv-x="876" 
d="M167 -301l70 77q19 22 34.5 41.5t25 32t22 34.5t17 30.5t19 38.5t20.5 41q-205 6 -287 192q-54 123 -54 272q0 168 63 333.5t155 272.5q156 182 384 196q16 1 32 1q230 0 322 -202l-247 -230q-39 60 -116 60q-51 -2 -98 -32t-80.5 -77t-57.5 -99.5t-37 -106.5
q-20 -76 -20 -146q0 -81 30 -131.5t95 -50.5q7 0 14 1q37 3 76 22.5t70 45.5t56 57l95 -179q-58 -77 -120 -120.5t-151 -66.5q-39 -179 -151 -334l-68 -95z" />
    <glyph glyph-name="egrave" unicode="&#xe8;" horiz-adv-x="940" 
d="M221 803q-14 -2 -44 -9t-43 -8l59 326q411 77 874 99l-91 -314q-214 -5 -477 -46q-26 -122 -39 -203q148 53 372 87l-65 -247h-15q-140 0 -321 -51q-17 -119 -20 -151q76 16 121 25t115 20.5t133 18t125 7.5l-88 -295q-249 0 -406.5 -12t-374.5 -47q63 449 185 800z
M592 1674l48 -68q47 -64 79.5 -99.5t93.5 -89.5l52 -46l-53 -60l-64 29q-170 73 -278 179l-65 64z" />
    <glyph glyph-name="eacute" unicode="&#xe9;" horiz-adv-x="940" 
d="M221 803q-14 -2 -44 -9t-43 -8l59 326q411 77 874 99l-91 -314q-214 -5 -477 -46q-26 -122 -39 -203q148 53 372 87l-65 -247h-15q-140 0 -321 -51q-17 -119 -20 -151q76 16 121 25t115 20.5t133 18t125 7.5l-88 -295q-249 0 -406.5 -12t-374.5 -47q63 449 185 800z
M743 1674l176 -91l-72 -64q-117 -103 -301 -179l-67 -29l-45 60l58 46q45 36 64.5 52.5t48.5 44.5t51 56z" />
    <glyph glyph-name="ecircumflex" unicode="&#xea;" horiz-adv-x="940" 
d="M221 803q-14 -2 -44 -9t-43 -8l59 326q411 77 874 99l-91 -314q-214 -5 -477 -46q-26 -122 -39 -203q148 53 372 87l-65 -247h-15q-140 0 -321 -51q-17 -119 -20 -151q76 16 121 25t115 20.5t133 18t125 7.5l-88 -295q-249 0 -406.5 -12t-374.5 -47q63 449 185 800z
M389 1410l64 16q40 10 79 39.5t66.5 65t44.5 72.5l26 54l146 53l-8 -82q-1 -19 -1 -39q0 -58 13 -111t35 -75l17 -21l-139 -71q-28 55 -28 136q0 18 2 37l4 57l-26 -53q-48 -96 -147 -143l-49 -25z" />
    <glyph glyph-name="edieresis" unicode="&#xeb;" horiz-adv-x="925" 
d="M886 1638h4q75 0 75 -82q0 -18 -4 -40q-17 -131 -116 -140h-12q-68 0 -68 78q0 20 5 44q20 134 116 140zM568 1612h8q72 0 72 -84q0 -17 -3 -38q-21 -128 -115 -137h-8q-74 0 -74 82q0 18 4 40q17 131 116 137zM221 803q-14 -2 -44 -9t-43 -8l59 326q411 77 874 99
l-91 -314q-214 -5 -477 -46q-26 -122 -39 -203q148 53 372 87l-65 -247h-15q-140 0 -321 -51q-17 -119 -20 -151q60 13 95 20t94 17.5t102.5 16.5t98 11t104.5 6l-88 -295q-249 0 -406.5 -12t-374.5 -47q63 449 185 800z" />
    <glyph glyph-name="igrave" unicode="&#xec;" horiz-adv-x="532" 
d="M360 1674l49 -68q47 -64 79 -99.5t91 -89.5l51 -46l-51 -60l-64 29q-169 73 -277 179l-65 64zM36 0q36 241 122.5 594t156.5 533q68 27 102.5 37.5t71 16t103.5 8.5q-33 -136 -73.5 -345t-74.5 -417.5t-52 -355.5z" />
    <glyph glyph-name="iacute" unicode="&#xed;" horiz-adv-x="532" 
d="M655 1674l174 -91l-73 -64q-122 -108 -297 -179l-67 -29l-44 60l57 46q24 20 38 31.5t33.5 28.5t32.5 30t29 29.5t30 33.5zM36 0q36 241 122.5 594t156.5 533q68 27 102.5 37.5t71 16t103.5 8.5q-50 -207 -111 -549.5t-89 -568.5z" />
    <glyph glyph-name="icircumflex" unicode="&#xee;" horiz-adv-x="532" 
d="M289 1410l64 16q58 14 110 66t79 111l23 54l149 53l-8 -82q-2 -18 -2 -37q0 -38 6 -75t17 -67.5t25 -45.5l18 -21l-143 -71q-23 56 -23 134q0 19 1 39l5 57l-28 -53q-48 -96 -146 -143l-50 -25zM36 0q36 241 122.5 594t156.5 533q96 38 139.5 48t137.5 14
q-50 -207 -111 -549.5t-89 -568.5z" />
    <glyph glyph-name="idieresis" unicode="&#xef;" horiz-adv-x="532" 
d="M710 1638h4q77 0 77 -87q0 -16 -3 -35q-17 -131 -116 -140h-12q-69 0 -69 80q0 19 4 42q19 134 115 140zM395 1612h8q71 0 71 -82q0 -18 -4 -40q-20 -128 -116 -137h-8q-71 0 -71 76q0 21 5 46q16 131 115 137zM36 0q36 241 122.5 594t156.5 533q68 27 102.5 37.5t71 16
t103.5 8.5q-50 -207 -111 -549.5t-89 -568.5z" />
    <glyph glyph-name="eth" unicode="&#xf0;" horiz-adv-x="880" 
 />
    <glyph glyph-name="ntilde" unicode="&#xf1;" horiz-adv-x="1071" 
d="M499 1493q124 75 182 75q16 0 27 -6q50 -27 140 -78q16 -9 39 -9q85 0 262 134l-34 -161q-138 -89 -233 -89q-99 0 -188 100q-17 19 -46 19q-64 0 -188 -96zM36 15q36 240 122.5 593t156.5 533q91 37 134 46.5t143 19.5l12 -89q32 -247 71 -460q23 -128 51 -206
q22 202 67.5 392.5t108.5 304.5q176 71 338 88q-7 -22 -20 -66q-50 -166 -77 -259t-66 -243.5t-64 -288t-40 -275.5l-275 -108l-103 142q-104 143 -138 244q-11 45 -14 54q-36 -208 -48 -351z" />
    <glyph glyph-name="ograve" unicode="&#xf2;" horiz-adv-x="880" 
d="M592 1674l48 -68q33 -45 58 -74.5t49 -53.5t66 -61l52 -46l-53 -60l-64 29q-170 73 -278 179l-65 64zM604 1263q13 1 26 1q89 0 159.5 -34t116 -94t69 -140.5t23.5 -175.5q0 -65 -11 -133q-13 -77 -39.5 -155t-65 -153.5t-90 -142t-111 -118t-133 -83t-150.5 -35.5
q-18 -1 -36 -1q-189 0 -269 174q-58 126 -58 286q0 168 59 334.5t146 273.5q146 182 364 196zM595 892q-50 0 -95 -30t-76.5 -78.5t-53 -100.5t-34.5 -106q-17 -74 -17 -143q0 -83 28 -135t90 -52h9q52 5 99 41t80.5 91t56.5 112.5t38 118.5q15 69 15 122q0 160 -136 160h-4
z" />
    <glyph glyph-name="oacute" unicode="&#xf3;" horiz-adv-x="880" 
d="M743 1674l176 -91l-72 -64q-117 -103 -301 -179l-67 -29l-45 60l58 46q45 36 64.5 52.5t48.5 44.5t51 56zM604 1263q13 1 26 1q118 0 202.5 -59t125 -158t40.5 -227q0 -65 -11 -133q-13 -77 -39.5 -155t-65 -153.5t-90 -142t-111 -118t-133 -83t-150.5 -35.5
q-18 -1 -36 -1q-189 0 -269 174q-58 126 -58 286q0 168 59 334.5t146 273.5q146 182 364 196zM595 892q-50 0 -95 -30t-76.5 -78.5t-53 -100.5t-34.5 -106q-17 -74 -17 -143q0 -83 28 -135t90 -52h9q52 5 99 41t80.5 91t56.5 112.5t38 118.5q15 69 15 122q0 160 -136 160h-4
z" />
    <glyph glyph-name="ocircumflex" unicode="&#xf4;" horiz-adv-x="880" 
d="M420 1439l64 16q39 10 77.5 39.5t66 64.5t44.5 72l24 52l149 54l-7 -82q-2 -18 -2 -38q0 -58 12.5 -110t34.5 -75l19 -19l-144 -71q-23 55 -23 133q0 18 1 37l5 55l-30 -51q-19 -35 -38.5 -60.5t-46 -47t-60.5 -36.5l-49 -22zM604 1263q13 1 26 1q89 0 159.5 -34t116 -94
t69 -140.5t23.5 -175.5q0 -65 -11 -133q-16 -92 -50 -185.5t-88 -182t-120 -157.5t-152.5 -113t-178.5 -49q-18 -1 -36 -1q-189 0 -269 174q-58 126 -58 286q0 168 59 334.5t146 273.5q146 182 364 196zM595 892q-50 0 -95 -30t-76.5 -78.5t-53 -100.5t-34.5 -106
q-17 -74 -17 -143q0 -83 28 -135t90 -52h9q35 3 68.5 21t60 46.5t50 63.5t41.5 75t31.5 79t22.5 78q15 69 15 122q0 160 -136 160h-4z" />
    <glyph glyph-name="otilde" unicode="&#xf5;" horiz-adv-x="880" 
d="M398 1481q122 74 180 74q17 0 29 -6q51 -29 136 -80q17 -9 39 -9q86 0 265 134l-36 -161q-139 -89 -231 -89q-97 0 -186 99q-17 19 -46 19q-64 0 -188 -94zM604 1263q13 1 26 1q89 0 159.5 -34t116 -94t69 -140.5t23.5 -175.5q0 -65 -11 -133q-16 -92 -50 -185.5
t-88 -182t-120 -157.5t-152.5 -113t-178.5 -49q-18 -1 -36 -1q-189 0 -269 174q-58 126 -58 286q0 168 59 334.5t146 273.5q146 182 364 196zM595 892q-40 0 -77.5 -20.5t-65.5 -52.5t-52 -74.5t-39 -84t-26 -84.5q-17 -72 -17 -141q0 -83 28.5 -135.5t90.5 -52.5h9
q52 5 99 41t80.5 91t56.5 112.5t38 118.5q15 69 15 122q0 160 -136 160h-4z" />
    <glyph glyph-name="odieresis" unicode="&#xf6;" horiz-adv-x="880" 
d="M871 1654h4q74 0 74 -80q0 -19 -4 -42q-17 -131 -116 -141q-6 -1 -12 -1q-67 0 -67 76q0 21 5 47q20 135 116 141zM556 1626h8q70 0 70 -79q0 -19 -4 -43q-20 -128 -116 -139h-8q-73 0 -73 80q0 19 4 42q20 133 119 139zM604 1263q13 1 26 1q118 0 202.5 -59t125 -158
t40.5 -227q0 -65 -11 -133q-16 -92 -50 -185.5t-88 -182t-120 -157.5t-152.5 -113t-178.5 -49q-18 -1 -36 -1q-189 0 -269 174q-58 126 -58 286q0 168 59 334.5t146 273.5q146 182 364 196zM595 892q-40 0 -77.5 -20.5t-65.5 -52.5t-52 -74.5t-39 -84t-26 -84.5
q-17 -72 -17 -141q0 -83 28.5 -135.5t90.5 -52.5h9q52 5 99 41t80.5 91t56.5 112.5t38 118.5q15 69 15 122q0 160 -136 160h-4z" />
    <glyph glyph-name="oslash" unicode="&#xf8;" horiz-adv-x="880" 
d="M604 1257q13 1 26 1q51 0 96 -9q15 62 22 100l7 36l190 48l-23 -67q-23 -66 -65 -180q142 -117 142 -355q0 -70 -12 -150q-16 -93 -50 -186t-88 -180.5t-120.5 -156.5t-152.5 -113.5t-178 -50.5h-26q-51 0 -96 9q-54 -68 -84 -106l-31 -36l-84 32l33 43q34 44 80 112
q-75 55 -115 160.5t-40 240.5q0 84 16 172q12 79 36 153.5t58.5 144t81.5 128.5t103 104.5t126 73t148 32.5zM431 244h15q52 5 99 40.5t80.5 90t56.5 111.5t38 118q13 62 13 111q0 66 -23 108q-141 -341 -279 -579zM351 292q105 170 151 300q66 146 117 294h-24
q-50 -2 -94.5 -32t-76 -78t-53.5 -99.5t-36 -105.5q-18 -80 -18 -142q0 -84 34 -137z" />
    <glyph glyph-name="ugrave" unicode="&#xf9;" horiz-adv-x="969" 
d="M592 1674l48 -68q33 -45 58 -74.5t49 -53.5t66 -61l52 -46l-53 -60l-64 29q-170 73 -278 179l-65 64zM289 1124q100 36 137 44t133 12q-138 -486 -193 -794q-2 -7 -2 -13q0 -52 108 -52h10q36 0 77 51q117 519 213 766q99 39 138 48.5t131 14.5q-33 -137 -72 -343.5
t-71 -417t-47 -357.5l-360 -71q3 23 8 65q-154 -62 -262 -62q-23 0 -44 2q-119 12 -141 185q-16 119 -16 176q0 26 3 39q74 304 250 707z" />
    <glyph glyph-name="uacute" unicode="&#xfa;" horiz-adv-x="969" 
d="M743 1674l176 -91l-72 -64q-117 -103 -301 -179l-67 -29l-45 60l58 46q45 36 64.5 52.5t48.5 44.5t51 56zM289 1124q100 36 137 44t133 12q-138 -486 -193 -794q-2 -7 -2 -13q0 -52 108 -52h10q36 0 77 51q116 519 213 766q99 39 138 48.5t131 14.5q-33 -137 -72 -343.5
t-71 -417t-47 -357.5l-360 -71q3 23 8 65q-154 -62 -262 -62q-23 0 -44 2q-119 12 -141 185q-16 119 -16 176q0 26 3 39q74 304 250 707z" />
    <glyph glyph-name="ucircumflex" unicode="&#xfb;" horiz-adv-x="969" 
d="M446 1410l64 16q40 10 79 39t67.5 65t44.5 73l25 54l148 53l-7 -82q-2 -22 -2 -45q0 -58 12 -108.5t33 -71.5l18 -21l-140 -71q-24 50 -24 132q0 20 1 41l5 57l-28 -53q-27 -51 -61.5 -85.5t-83.5 -57.5l-50 -25zM289 1124q100 36 137 44t133 12q-138 -486 -193 -794
q-2 -7 -2 -13q0 -52 108 -52h10q36 0 77 51q117 519 213 766q99 39 138 48.5t131 14.5q-33 -137 -72 -343.5t-71 -417t-47 -357.5l-360 -71q3 23 8 65q-154 -62 -262 -62q-23 0 -44 2q-119 12 -141 185q-16 119 -16 176q0 26 3 39q74 304 250 707z" />
    <glyph glyph-name="udieresis" unicode="&#xfc;" horiz-adv-x="969" 
d="M886 1638h4q75 0 75 -82q0 -18 -4 -40q-17 -131 -116 -140h-12q-68 0 -68 78q0 20 5 44q20 134 116 140zM568 1612h8q72 0 72 -84q0 -17 -3 -38q-21 -128 -115 -137h-8q-74 0 -74 82q0 18 4 40q17 131 116 137zM289 1124q100 36 137 44t133 12q-138 -486 -193 -794
q-2 -7 -2 -13q0 -52 108 -52h10q36 0 77 51q116 519 213 766q99 39 138 48.5t131 14.5q-51 -211 -109.5 -552.5t-80.5 -565.5l-360 -71q3 23 8 65q-154 -62 -262 -62q-23 0 -44 2q-119 12 -141 185q-16 119 -16 176q0 26 3 39q74 304 250 707z" />
    <glyph glyph-name="OE" unicode="&#x152;" horiz-adv-x="1659" 
d="M780 883q-42 45 -114 45q-32 -1 -63 -13.5t-56.5 -33t-49 -48.5t-42.5 -59.5t-34.5 -66.5t-27 -69t-18.5 -67q-20 -84 -20 -162q0 -44 7 -80t21 -65.5t39.5 -46t59.5 -16.5q9 0 17 1q57 6 114 48q65 347 167 633zM1496 9q-302 0 -490.5 -14t-446.5 -55v3
q-82 -23 -154 -23q-214 0 -304 196q-66 144 -66 325q0 89 16 186q17 107 52 206.5t90.5 189.5t125.5 159t162.5 113t196.5 52q12 1 24 1q122 0 217 -54q365 61 877 88l-113 -374q-180 -7 -300.5 -18t-267.5 -36q-29 -128 -48 -244q185 62 446 102l-77 -295h-17
q-175 0 -387 -57q-2 -17 -12 -83.5t-12 -100.5q20 4 92 18t101 19.5t92.5 16t104 15.5t96 9.5t106.5 5.5z" />
    <glyph glyph-name="oe" unicode="&#x153;" horiz-adv-x="1404" 
d="M672 823q-33 39 -98 39q-48 0 -90.5 -29t-72.5 -76t-51 -97t-33 -101q-16 -72 -16 -138q0 -79 26 -128.5t84 -49.5q6 0 13 1q51 3 96 42q57 285 142 537zM1288 74q-175 0 -298.5 -5.5t-238 -17.5t-266.5 -36v2q-54 -17 -99 -17q-15 -1 -29 -1q-185 0 -263 171
q-58 126 -58 284q0 160 56 318t140 261q71 87 169.5 139.5t204.5 52.5q98 0 188 -47q323 54 749 74l-95 -321q-150 -4 -253 -13t-231 -32q-29 -125 -42 -208q154 54 380 86l-65 -253h-16q-146 0 -332 -48q-19 -136 -21 -157q102 21 167 32.5t160 23t179 13.5z" />
    <glyph glyph-name="quoteleft" unicode="&#x2018;" horiz-adv-x="595" 
d="M327 1382l383 112l-33 -149q-34 -158 -75.5 -247.5t-127.5 -182.5l-86 -93l-212 86l40 82q9 18 24.5 48.5t23.5 46.5t19.5 43.5t18 49t12 51.5t7.5 63z" />
    <glyph glyph-name="quoteright" unicode="&#x2019;" horiz-adv-x="595" 
d="M327 1382l383 112l-33 -149q-34 -158 -75.5 -247.5t-127.5 -182.5l-86 -93l-212 86l40 82q9 18 24.5 48.5t23.5 46.5t19.5 43.5t18 49t12 51.5t7.5 63z" />
    <glyph glyph-name="quotedblleft" unicode="&#x201c;" horiz-adv-x="1146" 
d="M1082 763q-78 -67 -172 -67q-96 0 -149 75q-42 59 -42 139q0 19 3 38q8 103 84.5 256.5t324.5 218.5h3q6 0 18.5 -3.5t25.5 -9t22.5 -14t9.5 -16.5q0 -6 -5 -11q-35 -39 -92 -97q-50 -50 -50 -83q0 -5 1 -10q130 -42 130 -172q0 -32 -8 -70q-21 -104 -104 -174zM539 769
q-77 -67 -173 -67q-97 0 -149 75q-42 60 -42 143q0 16 2 34q10 103 86.5 256t324.5 219q14 0 46 -14t32 -30q0 -5 -4 -10q-35 -39 -93 -97q-50 -51 -50 -84q0 -5 1 -9q131 -41 131 -172q0 -33 -8 -71q-22 -103 -104 -173z" />
    <glyph glyph-name="quotedblright" unicode="&#x201d;" horiz-adv-x="1128" 
d="M301 1361q79 66 175 66q97 0 149 -74q43 -60 43 -145q0 -15 -2 -30q-8 -105 -86 -258t-324 -219h-3q-16 0 -46.5 14t-30.5 29q0 6 5 11q37 39 93 99q48 51 48 82q0 5 -1 9q-132 40 -132 169q0 34 10 75q20 102 102 172zM846 1356q78 68 172 68q95 0 149 -75
q42 -58 42 -137q0 -19 -2 -40q-9 -105 -84.5 -258t-322.5 -218q-13 0 -47 14t-34 29q0 5 4 10q36 39 92 99q51 54 51 85q0 3 -1 6q-130 41 -130 171q0 34 8 73q21 102 103 173z" />
    <glyph glyph-name="minute" unicode="&#x2032;" horiz-adv-x="595" 
d="M327 1382l383 112l-33 -149q-34 -158 -75.5 -247.5t-127.5 -182.5l-86 -93l-212 86l40 82q9 18 24.5 48.5t23.5 46.5t19.5 43.5t18 49t12 51.5t7.5 63z" />
    <glyph glyph-name="glyph1" horiz-adv-x="0" 
 />
    <glyph glyph-name="glyph2" horiz-adv-x="2972" 
 />
    <glyph glyph-name="glyph156" horiz-adv-x="1128" 
d="M1085 762q-78 -66 -173 -66q-99 0 -151 76q-41 58 -41 135q0 20 3 41q9 105 84.5 258t322.5 218q13 0 46 -14t33 -30q0 -6 -5 -12q-37 -39 -92 -97q-49 -49 -49 -83q0 -6 1 -10q131 -43 131 -171q0 -32 -9 -70q-20 -105 -101 -175zM363 701q-57 0 -100 30t-64.5 78.5
t-21.5 108.5q0 18 2 36q8 105 83.5 256.5t327.5 216.5q15 0 46 -13t31 -30q0 -5 -3 -10q-37 -40 -95 -97q-50 -50 -50 -84q0 -5 1 -10q130 -40 130 -169q0 -33 -8 -72q-19 -95 -96 -168t-176 -73h-7z" />
    <glyph glyph-name="glyph158" horiz-adv-x="1761" 
d="M780 883q-42 45 -114 45q-32 -1 -63 -13.5t-56.5 -33t-49 -48.5t-42.5 -59.5t-34.5 -66.5t-27 -69t-18.5 -67q-20 -84 -20 -162q0 -44 7 -80t21 -65.5t39.5 -46t59.5 -16.5q9 0 17 1q57 6 114 48q65 347 167 633zM1496 9q-302 0 -490.5 -14t-446.5 -55v3
q-82 -23 -154 -23q-214 0 -304 196q-66 144 -66 325q0 89 16 186q17 107 52 206.5t90.5 189.5t125.5 159t162.5 113t196.5 52q12 1 24 1q122 0 217 -54q365 61 877 88l-113 -374q-180 -7 -300.5 -18t-267.5 -36q-29 -128 -48 -244q185 62 446 102l-77 -295h-17
q-175 0 -387 -57q-2 -17 -12 -83.5t-12 -100.5q20 4 92 18t101 19.5t92.5 16t104 15.5t96 9.5t106.5 5.5z" />
  </font>
</defs>
</svg>
